<?xml version="1.0" encoding="UTF-8" standalone="no"?>
<!DOCTYPE svg PUBLIC "-//W3C//DTD SVG 1.1//EN"
 "http://www.w3.org/Graphics/SVG/1.1/DTD/svg11.dtd">
<!-- Generated by graphviz version 13.1.1 (0)
 -->
<!-- Title: assets.hpp Pages: 1 -->
<svg width="1648pt" height="140pt"
 viewBox="0.00 0.00 1648.00 140.00" xmlns="http://www.w3.org/2000/svg" xmlns:xlink="http://www.w3.org/1999/xlink">
<g id="graph0" class="graph" transform="scale(1 1) rotate(0) translate(4 136)">
<title>assets.hpp</title>
<!-- Node1 -->
<g id="Node000001" class="node">
<title>Node1</title>
<g id="a_Node000001"><a xlink:title="Core data structures owned and returned by the importer.">
<polygon fill="#999999" stroke="#666666" points="751.5,-132 687.5,-132 687.5,-112 751.5,-112 751.5,-132"/>
<text xml:space="preserve" text-anchor="middle" x="719.5" y="-118.5" font-family="Helvetica,sans-Serif" font-size="10.00">assets.hpp</text>
</a>
</g>
</g>
<!-- Node2 -->
<g id="Node000002" class="node">
<title>Node2</title>
<g id="a_Node000002"><a xlink:href="def_8hpp.html" target="_top" xlink:title=" ">
<polygon fill="white" stroke="#666666" points="743.62,-76 695.38,-76 695.38,-56 743.62,-56 743.62,-76"/>
<text xml:space="preserve" text-anchor="middle" x="719.5" y="-62.5" font-family="Helvetica,sans-Serif" font-size="10.00">def.hpp</text>
</a>
</g>
</g>
<!-- Node1&#45;&gt;Node2 -->
<g id="edge1_Node000001_Node000002" class="edge">
<title>Node1&#45;&gt;Node2</title>
<g id="a_edge1_Node000001_Node000002"><a xlink:title=" ">
<path fill="none" stroke="#63b8ff" d="M719.5,-111.59C719.5,-105.01 719.5,-95.96 719.5,-87.73"/>
<polygon fill="#63b8ff" stroke="#63b8ff" points="723,-87.81 719.5,-77.81 716,-87.81 723,-87.81"/>
</a>
</g>
</g>
<!-- Node3 -->
<g id="Node000003" class="node">
<title>Node3</title>
<g id="a_Node000003"><a xlink:title=" ">
<polygon fill="#e0e0e0" stroke="#999999" points="61,-20 0,-20 0,0 61,0 61,-20"/>
<text xml:space="preserve" text-anchor="middle" x="30.5" y="-6.5" font-family="Helvetica,sans-Serif" font-size="10.00">filesystem</text>
</a>
</g>
</g>
<!-- Node2&#45;&gt;Node3 -->
<g id="edge2_Node000002_Node000003" class="edge">
<title>Node2&#45;&gt;Node3</title>
<g id="a_edge2_Node000002_Node000003"><a xlink:title=" ">
<path fill="none" stroke="#63b8ff" d="M694.9,-64.64C609.92,-63.11 320.81,-55.58 72.47,-20.05"/>
<polygon fill="#63b8ff" stroke="#63b8ff" points="73.32,-16.64 62.92,-18.66 72.31,-23.56 73.32,-16.64"/>
</a>
</g>
</g>
<!-- Node4 -->
<g id="Node000004" class="node">
<title>Node4</title>
<g id="a_Node000004"><a xlink:title=" ">
<polygon fill="#e0e0e0" stroke="#999999" points="119.5,-20 79.5,-20 79.5,0 119.5,0 119.5,-20"/>
<text xml:space="preserve" text-anchor="middle" x="99.5" y="-6.5" font-family="Helvetica,sans-Serif" font-size="10.00">string</text>
</a>
</g>
</g>
<!-- Node2&#45;&gt;Node4 -->
<g id="edge3_Node000002_Node000004" class="edge">
<title>Node2&#45;&gt;Node4</title>
<g id="a_edge3_Node000002_Node000004"><a xlink:title=" ">
<path fill="none" stroke="#63b8ff" d="M695.04,-65.1C615.06,-65 354.18,-61.47 131.21,-20.1"/>
<polygon fill="#63b8ff" stroke="#63b8ff" points="131.91,-16.67 121.44,-18.25 130.61,-23.55 131.91,-16.67"/>
</a>
</g>
</g>
<!-- Node5 -->
<g id="Node000005" class="node">
<title>Node5</title>
<g id="a_Node000005"><a xlink:title=" ">
<polygon fill="#e0e0e0" stroke="#999999" points="181,-20 138,-20 138,0 181,0 181,-20"/>
<text xml:space="preserve" text-anchor="middle" x="159.5" y="-6.5" font-family="Helvetica,sans-Serif" font-size="10.00">vector</text>
</a>
</g>
</g>
<!-- Node2&#45;&gt;Node5 -->
<g id="edge4_Node000002_Node000005" class="edge">
<title>Node2&#45;&gt;Node5</title>
<g id="a_edge4_Node000002_Node000005"><a xlink:title=" ">
<path fill="none" stroke="#63b8ff" d="M694.96,-64.71C620.49,-63.47 390.57,-56.86 192.52,-20.23"/>
<polygon fill="#63b8ff" stroke="#63b8ff" points="193.29,-16.81 182.81,-18.4 191.99,-23.69 193.29,-16.81"/>
</a>
</g>
</g>
<!-- Node6 -->
<g id="Node000006" class="node">
<title>Node6</title>
<g id="a_Node000006"><a xlink:title=" ">
<polygon fill="#e0e0e0" stroke="#999999" points="250.12,-20 198.88,-20 198.88,0 250.12,0 250.12,-20"/>
<text xml:space="preserve" text-anchor="middle" x="224.5" y="-6.5" font-family="Helvetica,sans-Serif" font-size="10.00">memory</text>
</a>
</g>
</g>
<!-- Node2&#45;&gt;Node6 -->
<g id="edge5_Node000002_Node000006" class="edge">
<title>Node2&#45;&gt;Node6</title>
<g id="a_edge5_Node000002_Node000006"><a xlink:title=" ">
<path fill="none" stroke="#63b8ff" d="M695.32,-64.02C627.98,-60.99 432.55,-50.24 261.61,-20.31"/>
<polygon fill="#63b8ff" stroke="#63b8ff" points="262.34,-16.89 251.88,-18.58 261.11,-23.78 262.34,-16.89"/>
</a>
</g>
</g>
<!-- Node7 -->
<g id="Node000007" class="node">
<title>Node7</title>
<g id="a_Node000007"><a xlink:title=" ">
<polygon fill="#e0e0e0" stroke="#999999" points="313.12,-20 267.88,-20 267.88,0 313.12,0 313.12,-20"/>
<text xml:space="preserve" text-anchor="middle" x="290.5" y="-6.5" font-family="Helvetica,sans-Serif" font-size="10.00">cstdint</text>
</a>
</g>
</g>
<!-- Node2&#45;&gt;Node7 -->
<g id="edge6_Node000002_Node000007" class="edge">
<title>Node2&#45;&gt;Node7</title>
<g id="a_edge6_Node000002_Node000007"><a xlink:title=" ">
<path fill="none" stroke="#63b8ff" d="M695.05,-63.69C633.94,-60.09 469.57,-48.56 324.28,-20.28"/>
<polygon fill="#63b8ff" stroke="#63b8ff" points="325.39,-16.93 314.9,-18.42 324.03,-23.8 325.39,-16.93"/>
</a>
</g>
</g>
<!-- Node8 -->
<g id="Node000008" class="node">
<title>Node8</title>
<g id="a_Node000008"><a xlink:title=" ">
<polygon fill="#e0e0e0" stroke="#999999" points="426.25,-20 330.75,-20 330.75,0 426.25,0 426.25,-20"/>
<text xml:space="preserve" text-anchor="middle" x="378.5" y="-6.5" font-family="Helvetica,sans-Serif" font-size="10.00">mr&#45;math/math.hpp</text>
</a>
</g>
</g>
<!-- Node2&#45;&gt;Node8 -->
<g id="edge7_Node000002_Node000008" class="edge">
<title>Node2&#45;&gt;Node8</title>
<g id="a_edge7_Node000002_Node000008"><a xlink:title=" ">
<path fill="none" stroke="#63b8ff" d="M694.98,-61.12C641.59,-52.66 513.59,-32.39 437.74,-20.38"/>
<polygon fill="#63b8ff" stroke="#63b8ff" points="438.4,-16.94 427.98,-18.84 437.31,-23.86 438.4,-16.94"/>
</a>
</g>
</g>
<!-- Node9 -->
<g id="Node000009" class="node">
<title>Node9</title>
<g id="a_Node000009"><a xlink:title=" ">
<polygon fill="#e0e0e0" stroke="#999999" points="558.25,-20 444.75,-20 444.75,0 558.25,0 558.25,-20"/>
<text xml:space="preserve" text-anchor="middle" x="501.5" y="-6.5" font-family="Helvetica,sans-Serif" font-size="10.00">glm/detail/qualifier.hpp</text>
</a>
</g>
</g>
<!-- Node2&#45;&gt;Node9 -->
<g id="edge8_Node000002_Node000009" class="edge">
<title>Node2&#45;&gt;Node9</title>
<g id="a_edge8_Node000002_Node000009"><a xlink:title=" ">
<path fill="none" stroke="#63b8ff" d="M694.92,-58.91C660.01,-50.27 595.36,-34.25 550.46,-23.13"/>
<polygon fill="#63b8ff" stroke="#63b8ff" points="551.52,-19.78 540.97,-20.78 549.83,-26.58 551.52,-19.78"/>
</a>
</g>
</g>
<!-- Node10 -->
<g id="Node000010" class="node">
<title>Node10</title>
<g id="a_Node000010"><a xlink:title=" ">
<polygon fill="#e0e0e0" stroke="#999999" points="712.88,-20 576.12,-20 576.12,0 712.88,0 712.88,-20"/>
<text xml:space="preserve" text-anchor="middle" x="644.5" y="-6.5" font-family="Helvetica,sans-Serif" font-size="10.00">glm/ext/matrix_float4x4.hpp</text>
</a>
</g>
</g>
<!-- Node2&#45;&gt;Node10 -->
<g id="edge9_Node000002_Node000010" class="edge">
<title>Node2&#45;&gt;Node10</title>
<g id="a_edge9_Node000002_Node000010"><a xlink:title=" ">
<path fill="none" stroke="#63b8ff" d="M706.44,-55.59C695.53,-47.74 679.75,-36.38 666.84,-27.09"/>
<polygon fill="#63b8ff" stroke="#63b8ff" points="669.05,-24.37 658.89,-21.36 664.96,-30.05 669.05,-24.37"/>
</a>
</g>
</g>
<!-- Node11 -->
<g id="Node000011" class="node">
<title>Node11</title>
<g id="a_Node000011"><a xlink:title=" ">
<polygon fill="#e0e0e0" stroke="#999999" points="857.62,-20 731.38,-20 731.38,0 857.62,0 857.62,-20"/>
<text xml:space="preserve" text-anchor="middle" x="794.5" y="-6.5" font-family="Helvetica,sans-Serif" font-size="10.00">glm/ext/vector_float2.hpp</text>
</a>
</g>
</g>
<!-- Node2&#45;&gt;Node11 -->
<g id="edge10_Node000002_Node000011" class="edge">
<title>Node2&#45;&gt;Node11</title>
<g id="a_edge10_Node000002_Node000011"><a xlink:title=" ">
<path fill="none" stroke="#63b8ff" d="M732.56,-55.59C743.47,-47.74 759.25,-36.38 772.16,-27.09"/>
<polygon fill="#63b8ff" stroke="#63b8ff" points="774.04,-30.05 780.11,-21.36 769.95,-24.37 774.04,-30.05"/>
</a>
</g>
</g>
<!-- Node12 -->
<g id="Node000012" class="node">
<title>Node12</title>
<g id="a_Node000012"><a xlink:title=" ">
<polygon fill="#e0e0e0" stroke="#999999" points="1001.62,-20 875.38,-20 875.38,0 1001.62,0 1001.62,-20"/>
<text xml:space="preserve" text-anchor="middle" x="938.5" y="-6.5" font-family="Helvetica,sans-Serif" font-size="10.00">glm/ext/vector_float3.hpp</text>
</a>
</g>
</g>
<!-- Node2&#45;&gt;Node12 -->
<g id="edge11_Node000002_Node000012" class="edge">
<title>Node2&#45;&gt;Node12</title>
<g id="a_edge11_Node000002_Node000012"><a xlink:title=" ">
<path fill="none" stroke="#63b8ff" d="M743.77,-59.01C778.68,-50.41 843.83,-34.34 889.1,-23.18"/>
<polygon fill="#63b8ff" stroke="#63b8ff" points="889.82,-26.61 898.69,-20.82 888.14,-19.81 889.82,-26.61"/>
</a>
</g>
</g>
<!-- Node13 -->
<g id="Node000013" class="node">
<title>Node13</title>
<g id="a_Node000013"><a xlink:title=" ">
<polygon fill="#e0e0e0" stroke="#999999" points="1145.62,-20 1019.38,-20 1019.38,0 1145.62,0 1145.62,-20"/>
<text xml:space="preserve" text-anchor="middle" x="1082.5" y="-6.5" font-family="Helvetica,sans-Serif" font-size="10.00">glm/ext/vector_float4.hpp</text>
</a>
</g>
</g>
<!-- Node2&#45;&gt;Node13 -->
<g id="edge12_Node000002_Node000013" class="edge">
<title>Node2&#45;&gt;Node13</title>
<g id="a_edge12_Node000002_Node000013"><a xlink:title=" ">
<path fill="none" stroke="#63b8ff" d="M743.88,-61.37C797.02,-53.47 925.11,-34.41 1007.63,-22.14"/>
<polygon fill="#63b8ff" stroke="#63b8ff" points="1008.09,-25.61 1017.46,-20.67 1007.06,-18.68 1008.09,-25.61"/>
</a>
</g>
</g>
<!-- Node14 -->
<g id="Node000014" class="node">
<title>Node14</title>
<g id="a_Node000014"><a xlink:title=" ">
<polygon fill="#e0e0e0" stroke="#999999" points="1233.12,-20 1163.88,-20 1163.88,0 1233.12,0 1233.12,-20"/>
<text xml:space="preserve" text-anchor="middle" x="1198.5" y="-6.5" font-family="Helvetica,sans-Serif" font-size="10.00">glm/glm.hpp</text>
</a>
</g>
</g>
<!-- Node2&#45;&gt;Node14 -->
<g id="edge13_Node000002_Node000014" class="edge">
<title>Node2&#45;&gt;Node14</title>
<g id="a_edge13_Node000002_Node000014"><a xlink:title=" ">
<path fill="none" stroke="#63b8ff" d="M743.66,-63.34C808.23,-58.73 990.35,-44.58 1152.36,-20.18"/>
<polygon fill="#63b8ff" stroke="#63b8ff" points="1152.64,-23.68 1162,-18.71 1151.58,-16.76 1152.64,-23.68"/>
</a>
</g>
</g>
<!-- Node15 -->
<g id="Node000015" class="node">
<title>Node15</title>
<g id="a_Node000015"><a xlink:title=" ">
<polygon fill="#e0e0e0" stroke="#999999" points="1356.12,-20 1250.88,-20 1250.88,0 1356.12,0 1356.12,-20"/>
<text xml:space="preserve" text-anchor="middle" x="1303.5" y="-6.5" font-family="Helvetica,sans-Serif" font-size="10.00">glm/gtc/type_ptr.hpp</text>
</a>
</g>
</g>
<!-- Node2&#45;&gt;Node15 -->
<g id="edge14_Node000002_Node000015" class="edge">
<title>Node2&#45;&gt;Node15</title>
<g id="a_edge14_Node000002_Node000015"><a xlink:title=" ">
<path fill="none" stroke="#63b8ff" d="M744.06,-63.42C817.54,-58.58 1042.27,-42.95 1239.19,-20.33"/>
<polygon fill="#63b8ff" stroke="#63b8ff" points="1239.59,-23.8 1249.12,-19.18 1238.78,-16.85 1239.59,-23.8"/>
</a>
</g>
</g>
<!-- Node16 -->
<g id="Node000016" class="node">
<title>Node16</title>
<g id="a_Node000016"><a xlink:title=" ">
<polygon fill="#e0e0e0" stroke="#999999" points="1472.75,-20 1374.25,-20 1374.25,0 1472.75,0 1472.75,-20"/>
<text xml:space="preserve" text-anchor="middle" x="1423.5" y="-6.5" font-family="Helvetica,sans-Serif" font-size="10.00">slang&#45;com&#45;helper.h</text>
</a>
</g>
</g>
<!-- Node2&#45;&gt;Node16 -->
<g id="edge15_Node000002_Node000016" class="edge">
<title>Node2&#45;&gt;Node16</title>
<g id="a_edge15_Node000002_Node000016"><a xlink:title=" ">
<path fill="none" stroke="#63b8ff" d="M743.91,-64.04C828.21,-60.58 1115.03,-47.51 1362.48,-20.25"/>
<polygon fill="#63b8ff" stroke="#63b8ff" points="1362.81,-23.74 1372.36,-19.15 1362.03,-16.78 1362.81,-23.74"/>
</a>
</g>
</g>
<!-- Node17 -->
<g id="Node000017" class="node">
<title>Node17</title>
<g id="a_Node000017"><a xlink:title=" ">
<polygon fill="#e0e0e0" stroke="#999999" points="1574.25,-20 1490.75,-20 1490.75,0 1574.25,0 1574.25,-20"/>
<text xml:space="preserve" text-anchor="middle" x="1532.5" y="-6.5" font-family="Helvetica,sans-Serif" font-size="10.00">slang&#45;com&#45;ptr.h</text>
</a>
</g>
</g>
<!-- Node2&#45;&gt;Node17 -->
<g id="edge16_Node000002_Node000017" class="edge">
<title>Node2&#45;&gt;Node17</title>
<g id="a_edge16_Node000002_Node000017"><a xlink:title=" ">
<path fill="none" stroke="#63b8ff" d="M743.93,-64.58C837.71,-62.77 1183.66,-54.13 1478.89,-20.17"/>
<polygon fill="#63b8ff" stroke="#63b8ff" points="1479.22,-23.65 1488.75,-19.02 1478.41,-16.7 1479.22,-23.65"/>
</a>
</g>
</g>
<!-- Node18 -->
<g id="Node000018" class="node">
<title>Node18</title>
<g id="a_Node000018"><a xlink:title=" ">
<polygon fill="#e0e0e0" stroke="#999999" points="1640.25,-20 1592.75,-20 1592.75,0 1640.25,0 1640.25,-20"/>
<text xml:space="preserve" text-anchor="middle" x="1616.5" y="-6.5" font-family="Helvetica,sans-Serif" font-size="10.00">slang.h</text>
</a>
</g>
</g>
<!-- Node2&#45;&gt;Node18 -->
<g id="edge17_Node000002_Node000018" class="edge">
<title>Node2&#45;&gt;Node18</title>
<g id="a_edge17_Node000002_Node000018"><a xlink:title=" ">
<path fill="none" stroke="#63b8ff" d="M743.77,-64.44C863.52,-61.56 1392.83,-47.61 1581.11,-19.95"/>
<polygon fill="#63b8ff" stroke="#63b8ff" points="1581.64,-23.41 1590.98,-18.42 1580.57,-16.49 1581.64,-23.41"/>
</a>
</g>
</g>
</g>
</svg>
