<?xml version="1.0" encoding="UTF-8" standalone="no"?>
<!DOCTYPE svg PUBLIC "-//W3C//DTD SVG 1.1//EN"
 "http://www.w3.org/Graphics/SVG/1.1/DTD/svg11.dtd">
<!-- Generated by graphviz version 13.1.1 (0)
 -->
<!-- Title: assets.hpp Pages: 1 -->
<svg width="333pt" height="196pt"
 viewBox="0.00 0.00 333.00 196.00" xmlns="http://www.w3.org/2000/svg" xmlns:xlink="http://www.w3.org/1999/xlink">
<g id="graph0" class="graph" transform="scale(1 1) rotate(0) translate(4 192)">
<title>assets.hpp</title>
<!-- Node1 -->
<g id="Node000001" class="node">
<title>Node1</title>
<g id="a_Node000001"><a xlink:title="Core data structures owned and returned by the importer.">
<polygon fill="#999999" stroke="#666666" points="192,-188 128,-188 128,-168 192,-168 192,-188"/>
<text xml:space="preserve" text-anchor="middle" x="160" y="-174.5" font-family="Helvetica,sans-Serif" font-size="10.00">assets.hpp</text>
</a>
</g>
</g>
<!-- Node2 -->
<g id="Node000002" class="node">
<title>Node2</title>
<g id="a_Node000002"><a xlink:href="compiler_8hpp.html" target="_top" xlink:title="Public API for shader compilation.">
<polygon fill="white" stroke="#666666" points="102.75,-132 31.25,-132 31.25,-112 102.75,-112 102.75,-132"/>
<text xml:space="preserve" text-anchor="middle" x="67" y="-118.5" font-family="Helvetica,sans-Serif" font-size="10.00">compiler.hpp</text>
</a>
</g>
</g>
<!-- Node1&#45;&gt;Node2 -->
<g id="edge1_Node000001_Node000002" class="edge">
<title>Node1&#45;&gt;Node2</title>
<g id="a_edge1_Node000001_Node000002"><a xlink:title=" ">
<path fill="none" stroke="#63b8ff" d="M134.3,-162.08C118.01,-152.62 97.41,-140.66 83.33,-132.48"/>
<polygon fill="#63b8ff" stroke="#63b8ff" points="132.09,-164.84 142.49,-166.83 135.6,-158.79 132.09,-164.84"/>
</a>
</g>
</g>
<!-- Node3 -->
<g id="Node000003" class="node">
<title>Node3</title>
<g id="a_Node000003"><a xlink:href="importer_8hpp.html" target="_top" xlink:title="High&#45;level import facade that wires loader and optimizer.">
<polygon fill="white" stroke="#666666" points="195,-76 125,-76 125,-56 195,-56 195,-76"/>
<text xml:space="preserve" text-anchor="middle" x="160" y="-62.5" font-family="Helvetica,sans-Serif" font-size="10.00">importer.hpp</text>
</a>
</g>
</g>
<!-- Node1&#45;&gt;Node3 -->
<g id="edge7_Node000001_Node000003" class="edge">
<title>Node1&#45;&gt;Node3</title>
<g id="a_edge7_Node000001_Node000003"><a xlink:title=" ">
<path fill="none" stroke="#63b8ff" d="M154.49,-156.65C152.67,-148.98 150.89,-140.15 150,-132 147.81,-112.03 153.36,-88.79 157.04,-76.22"/>
<polygon fill="#63b8ff" stroke="#63b8ff" points="151.09,-157.5 156.96,-166.32 157.88,-155.77 151.09,-157.5"/>
</a>
</g>
</g>
<!-- Node8 -->
<g id="Node000008" class="node">
<title>Node8</title>
<g id="a_Node000008"><a xlink:href="loader_8hpp.html" target="_top" xlink:title="Public API to load and convert source assets (e.g., glTF).">
<polygon fill="white" stroke="#666666" points="220.5,-132 159.5,-132 159.5,-112 220.5,-112 220.5,-132"/>
<text xml:space="preserve" text-anchor="middle" x="190" y="-118.5" font-family="Helvetica,sans-Serif" font-size="10.00">loader.hpp</text>
</a>
</g>
</g>
<!-- Node1&#45;&gt;Node8 -->
<g id="edge8_Node000001_Node000008" class="edge">
<title>Node1&#45;&gt;Node8</title>
<g id="a_edge8_Node000001_Node000008"><a xlink:title=" ">
<path fill="none" stroke="#63b8ff" d="M170.79,-157.58C175.57,-148.97 180.98,-139.24 184.83,-132.3"/>
<polygon fill="#63b8ff" stroke="#63b8ff" points="167.76,-155.83 165.96,-166.27 173.88,-159.23 167.76,-155.83"/>
</a>
</g>
</g>
<!-- Node9 -->
<g id="Node000009" class="node">
<title>Node9</title>
<g id="a_Node000009"><a xlink:href="optimizer_8hpp.html" target="_top" xlink:title="Public API for mesh optimization and LOD generation.">
<polygon fill="white" stroke="#666666" points="313.25,-132 238.75,-132 238.75,-112 313.25,-112 313.25,-132"/>
<text xml:space="preserve" text-anchor="middle" x="276" y="-118.5" font-family="Helvetica,sans-Serif" font-size="10.00">optimizer.hpp</text>
</a>
</g>
</g>
<!-- Node1&#45;&gt;Node9 -->
<g id="edge10_Node000001_Node000009" class="edge">
<title>Node1&#45;&gt;Node9</title>
<g id="a_edge10_Node000001_Node000009"><a xlink:title=" ">
<path fill="none" stroke="#63b8ff" d="M190.62,-162.75C211.16,-153.18 237.65,-140.85 255.64,-132.48"/>
<polygon fill="#63b8ff" stroke="#63b8ff" points="189.17,-159.56 181.58,-166.96 192.12,-165.91 189.17,-159.56"/>
</a>
</g>
</g>
<!-- Node2&#45;&gt;Node3 -->
<g id="edge2_Node000002_Node000003" class="edge">
<title>Node2&#45;&gt;Node3</title>
<g id="a_edge2_Node000002_Node000003"><a xlink:title=" ">
<path fill="none" stroke="#63b8ff" d="M92.7,-106.08C108.99,-96.62 129.59,-84.66 143.67,-76.48"/>
<polygon fill="#63b8ff" stroke="#63b8ff" points="91.4,-102.79 84.51,-110.83 94.91,-108.84 91.4,-102.79"/>
</a>
</g>
</g>
<!-- Node4 -->
<g id="Node000004" class="node">
<title>Node4</title>
<g id="a_Node000004"><a xlink:href="assets_8cpp.html" target="_top" xlink:title="Inline helpers and constructors for runtime asset structures.">
<polygon fill="white" stroke="#666666" points="64,-20 0,-20 0,0 64,0 64,-20"/>
<text xml:space="preserve" text-anchor="middle" x="32" y="-6.5" font-family="Helvetica,sans-Serif" font-size="10.00">assets.cpp</text>
</a>
</g>
</g>
<!-- Node3&#45;&gt;Node4 -->
<g id="edge3_Node000003_Node000004" class="edge">
<title>Node3&#45;&gt;Node4</title>
<g id="a_edge3_Node000003_Node000004"><a xlink:title=" ">
<path fill="none" stroke="#63b8ff" d="M127.15,-51.14C104.36,-41.52 74.59,-28.97 54.47,-20.48"/>
<polygon fill="#63b8ff" stroke="#63b8ff" points="125.74,-54.34 136.31,-55.01 128.46,-47.89 125.74,-54.34"/>
</a>
</g>
</g>
<!-- Node5 -->
<g id="Node000005" class="node">
<title>Node5</title>
<g id="a_Node000005"><a xlink:href="compiler_8cpp.html" target="_top" xlink:title="Slang&#45;based shader compilation pipeline implementation.">
<polygon fill="white" stroke="#666666" points="153.75,-20 82.25,-20 82.25,0 153.75,0 153.75,-20"/>
<text xml:space="preserve" text-anchor="middle" x="118" y="-6.5" font-family="Helvetica,sans-Serif" font-size="10.00">compiler.cpp</text>
</a>
</g>
</g>
<!-- Node3&#45;&gt;Node5 -->
<g id="edge4_Node000003_Node000005" class="edge">
<title>Node3&#45;&gt;Node5</title>
<g id="a_edge4_Node000003_Node000005"><a xlink:title=" ">
<path fill="none" stroke="#63b8ff" d="M145.78,-46.72C138.87,-37.84 130.87,-27.55 125.23,-20.3"/>
<polygon fill="#63b8ff" stroke="#63b8ff" points="142.85,-48.65 151.75,-54.4 148.38,-44.36 142.85,-48.65"/>
</a>
</g>
</g>
<!-- Node6 -->
<g id="Node000006" class="node">
<title>Node6</title>
<g id="a_Node000006"><a xlink:href="loader_8cpp.html" target="_top" xlink:title="glTF loading and conversion into runtime asset structures.">
<polygon fill="white" stroke="#666666" points="232.5,-20 171.5,-20 171.5,0 232.5,0 232.5,-20"/>
<text xml:space="preserve" text-anchor="middle" x="202" y="-6.5" font-family="Helvetica,sans-Serif" font-size="10.00">loader.cpp</text>
</a>
</g>
</g>
<!-- Node3&#45;&gt;Node6 -->
<g id="edge5_Node000003_Node000006" class="edge">
<title>Node3&#45;&gt;Node6</title>
<g id="a_edge5_Node000003_Node000006"><a xlink:title=" ">
<path fill="none" stroke="#63b8ff" d="M174.22,-46.72C181.13,-37.84 189.13,-27.55 194.77,-20.3"/>
<polygon fill="#63b8ff" stroke="#63b8ff" points="171.62,-44.36 168.25,-54.4 177.15,-48.65 171.62,-44.36"/>
</a>
</g>
</g>
<!-- Node7 -->
<g id="Node000007" class="node">
<title>Node7</title>
<g id="a_Node000007"><a xlink:href="optimizer_8cpp.html" target="_top" xlink:title="Mesh optimization and multi&#45;LOD generation implementation.">
<polygon fill="white" stroke="#666666" points="325.25,-20 250.75,-20 250.75,0 325.25,0 325.25,-20"/>
<text xml:space="preserve" text-anchor="middle" x="288" y="-6.5" font-family="Helvetica,sans-Serif" font-size="10.00">optimizer.cpp</text>
</a>
</g>
</g>
<!-- Node3&#45;&gt;Node7 -->
<g id="edge6_Node000003_Node000007" class="edge">
<title>Node3&#45;&gt;Node7</title>
<g id="a_edge6_Node000003_Node000007"><a xlink:title=" ">
<path fill="none" stroke="#63b8ff" d="M192.85,-51.14C215.64,-41.52 245.41,-28.97 265.53,-20.48"/>
<polygon fill="#63b8ff" stroke="#63b8ff" points="191.54,-47.89 183.69,-55.01 194.26,-54.34 191.54,-47.89"/>
</a>
</g>
</g>
<!-- Node8&#45;&gt;Node3 -->
<g id="edge9_Node000008_Node000003" class="edge">
<title>Node8&#45;&gt;Node3</title>
<g id="a_edge9_Node000008_Node000003"><a xlink:title=" ">
<path fill="none" stroke="#63b8ff" d="M179.21,-101.58C174.43,-92.97 169.02,-83.24 165.17,-76.3"/>
<polygon fill="#63b8ff" stroke="#63b8ff" points="176.12,-103.23 184.04,-110.27 182.24,-99.83 176.12,-103.23"/>
</a>
</g>
</g>
<!-- Node9&#45;&gt;Node3 -->
<g id="edge11_Node000009_Node000003" class="edge">
<title>Node9&#45;&gt;Node3</title>
<g id="a_edge11_Node000009_Node000003"><a xlink:title=" ">
<path fill="none" stroke="#63b8ff" d="M245.38,-106.75C224.84,-97.18 198.35,-84.85 180.36,-76.48"/>
<polygon fill="#63b8ff" stroke="#63b8ff" points="243.88,-109.91 254.42,-110.96 246.83,-103.56 243.88,-109.91"/>
</a>
</g>
</g>
</g>
</svg>
