<?xml version="1.0" encoding="UTF-8" standalone="no"?>
<!DOCTYPE svg PUBLIC "-//W3C//DTD SVG 1.1//EN"
 "http://www.w3.org/Graphics/SVG/1.1/DTD/svg11.dtd">
<!-- Generated by graphviz version 13.1.1 (0)
 -->
<!-- Title: def.hpp Pages: 1 -->
<svg width="430pt" height="252pt"
 viewBox="0.00 0.00 430.00 252.00" xmlns="http://www.w3.org/2000/svg" xmlns:xlink="http://www.w3.org/1999/xlink">
<g id="graph0" class="graph" transform="scale(1 1) rotate(0) translate(4 248)">
<title>def.hpp</title>
<!-- Node1 -->
<g id="Node000001" class="node">
<title>Node1</title>
<g id="a_Node000001"><a xlink:title=" ">
<polygon fill="#999999" stroke="#666666" points="314.62,-244 266.38,-244 266.38,-224 314.62,-224 314.62,-244"/>
<text xml:space="preserve" text-anchor="middle" x="290.5" y="-230.5" font-family="Helvetica,sans-Serif" font-size="10.00">def.hpp</text>
</a>
</g>
</g>
<!-- Node2 -->
<g id="Node000002" class="node">
<title>Node2</title>
<g id="a_Node000002"><a xlink:href="assets_8hpp.html" target="_top" xlink:title="Core data structures owned and returned by the importer.">
<polygon fill="white" stroke="#666666" points="213.5,-188 149.5,-188 149.5,-168 213.5,-168 213.5,-188"/>
<text xml:space="preserve" text-anchor="middle" x="181.5" y="-174.5" font-family="Helvetica,sans-Serif" font-size="10.00">assets.hpp</text>
</a>
</g>
</g>
<!-- Node1&#45;&gt;Node2 -->
<g id="edge1_Node000001_Node000002" class="edge">
<title>Node1&#45;&gt;Node2</title>
<g id="a_edge1_Node000001_Node000002"><a xlink:title=" ">
<path fill="none" stroke="#63b8ff" d="M261.46,-218.61C242.2,-209.07 217.46,-196.81 200.63,-188.48"/>
<polygon fill="#63b8ff" stroke="#63b8ff" points="259.64,-221.62 270.16,-222.92 262.75,-215.35 259.64,-221.62"/>
</a>
</g>
</g>
<!-- Node3 -->
<g id="Node000003" class="node">
<title>Node3</title>
<g id="a_Node000003"><a xlink:href="compiler_8hpp.html" target="_top" xlink:title="Public API for shader compilation.">
<polygon fill="white" stroke="#666666" points="281.25,-132 209.75,-132 209.75,-112 281.25,-112 281.25,-132"/>
<text xml:space="preserve" text-anchor="middle" x="245.5" y="-118.5" font-family="Helvetica,sans-Serif" font-size="10.00">compiler.hpp</text>
</a>
</g>
</g>
<!-- Node1&#45;&gt;Node3 -->
<g id="edge13_Node000001_Node000003" class="edge">
<title>Node1&#45;&gt;Node3</title>
<g id="a_edge13_Node000001_Node000003"><a xlink:title=" ">
<path fill="none" stroke="#63b8ff" d="M282.31,-212.97C272.53,-189.07 256.59,-150.11 249.33,-132.35"/>
<polygon fill="#63b8ff" stroke="#63b8ff" points="279.06,-214.29 286.09,-222.22 285.54,-211.64 279.06,-214.29"/>
</a>
</g>
</g>
<!-- Node4 -->
<g id="Node000004" class="node">
<title>Node4</title>
<g id="a_Node000004"><a xlink:href="importer_8hpp.html" target="_top" xlink:title="High&#45;level import facade that wires loader and optimizer.">
<polygon fill="white" stroke="#666666" points="248.5,-76 178.5,-76 178.5,-56 248.5,-56 248.5,-76"/>
<text xml:space="preserve" text-anchor="middle" x="213.5" y="-62.5" font-family="Helvetica,sans-Serif" font-size="10.00">importer.hpp</text>
</a>
</g>
</g>
<!-- Node1&#45;&gt;Node4 -->
<g id="edge14_Node000001_Node000004" class="edge">
<title>Node1&#45;&gt;Node4</title>
<g id="a_edge14_Node000001_Node000004"><a xlink:title=" ">
<path fill="none" stroke="#63b8ff" d="M296.23,-212.91C302.25,-187.56 308.56,-143.47 290.5,-112 280.56,-94.68 261.08,-83.38 244.21,-76.45"/>
<polygon fill="#63b8ff" stroke="#63b8ff" points="292.93,-211.69 293.79,-222.25 299.71,-213.46 292.93,-211.69"/>
</a>
</g>
</g>
<!-- Node11 -->
<g id="Node000011" class="node">
<title>Node11</title>
<g id="a_Node000011"><a xlink:href="pch_8hpp.html" target="_top" xlink:title=" ">
<polygon fill="white" stroke="#666666" points="325.75,-76 275.25,-76 275.25,-56 325.75,-56 325.75,-76"/>
<text xml:space="preserve" text-anchor="middle" x="300.5" y="-62.5" font-family="Helvetica,sans-Serif" font-size="10.00">pch.hpp</text>
</a>
</g>
</g>
<!-- Node1&#45;&gt;Node11 -->
<g id="edge15_Node000001_Node000011" class="edge">
<title>Node1&#45;&gt;Node11</title>
<g id="a_edge15_Node000001_Node000011"><a xlink:title=" ">
<path fill="none" stroke="#63b8ff" d="M307.56,-215.25C313.86,-207.52 320.24,-197.95 323.5,-188 334.01,-155.9 331.41,-144.84 323.5,-112 320.34,-98.86 312.66,-85.25 307.04,-76.48"/>
<polygon fill="#63b8ff" stroke="#63b8ff" points="305.12,-212.73 301.15,-222.55 310.38,-217.35 305.12,-212.73"/>
</a>
</g>
</g>
<!-- Node2&#45;&gt;Node3 -->
<g id="edge2_Node000002_Node000003" class="edge">
<title>Node2&#45;&gt;Node3</title>
<g id="a_edge2_Node000002_Node000003"><a xlink:title=" ">
<path fill="none" stroke="#63b8ff" d="M201.17,-160.4C212.12,-151.17 225.34,-140.01 234.48,-132.3"/>
<polygon fill="#63b8ff" stroke="#63b8ff" points="199.19,-157.49 193.8,-166.62 203.7,-162.84 199.19,-157.49"/>
</a>
</g>
</g>
<!-- Node2&#45;&gt;Node4 -->
<g id="edge8_Node000002_Node000004" class="edge">
<title>Node2&#45;&gt;Node4</title>
<g id="a_edge8_Node000002_Node000004"><a xlink:title=" ">
<path fill="none" stroke="#63b8ff" d="M187.42,-156.64C194.38,-132.72 205.64,-94.03 210.78,-76.35"/>
<polygon fill="#63b8ff" stroke="#63b8ff" points="184.08,-155.59 184.65,-166.17 190.81,-157.54 184.08,-155.59"/>
</a>
</g>
</g>
<!-- Node9 -->
<g id="Node000009" class="node">
<title>Node9</title>
<g id="a_Node000009"><a xlink:href="loader_8hpp.html" target="_top" xlink:title="Public API to load and convert source assets (e.g., glTF).">
<polygon fill="white" stroke="#666666" points="61,-132 0,-132 0,-112 61,-112 61,-132"/>
<text xml:space="preserve" text-anchor="middle" x="30.5" y="-118.5" font-family="Helvetica,sans-Serif" font-size="10.00">loader.hpp</text>
</a>
</g>
</g>
<!-- Node2&#45;&gt;Node9 -->
<g id="edge9_Node000002_Node000009" class="edge">
<title>Node2&#45;&gt;Node9</title>
<g id="a_edge9_Node000002_Node000009"><a xlink:title=" ">
<path fill="none" stroke="#63b8ff" d="M144.56,-163.79C117.46,-154.1 81.29,-141.16 57.01,-132.48"/>
<polygon fill="#63b8ff" stroke="#63b8ff" points="143.18,-167.01 153.77,-167.08 145.54,-160.42 143.18,-167.01"/>
</a>
</g>
</g>
<!-- Node10 -->
<g id="Node000010" class="node">
<title>Node10</title>
<g id="a_Node000010"><a xlink:href="optimizer_8hpp.html" target="_top" xlink:title="Public API for mesh optimization and LOD generation.">
<polygon fill="white" stroke="#666666" points="153.75,-132 79.25,-132 79.25,-112 153.75,-112 153.75,-132"/>
<text xml:space="preserve" text-anchor="middle" x="116.5" y="-118.5" font-family="Helvetica,sans-Serif" font-size="10.00">optimizer.hpp</text>
</a>
</g>
</g>
<!-- Node2&#45;&gt;Node10 -->
<g id="edge11_Node000002_Node000010" class="edge">
<title>Node2&#45;&gt;Node10</title>
<g id="a_edge11_Node000002_Node000010"><a xlink:title=" ">
<path fill="none" stroke="#63b8ff" d="M161.52,-160.4C150.4,-151.17 136.97,-140.01 127.69,-132.3"/>
<polygon fill="#63b8ff" stroke="#63b8ff" points="159.09,-162.93 169.01,-166.63 163.56,-157.54 159.09,-162.93"/>
</a>
</g>
</g>
<!-- Node3&#45;&gt;Node4 -->
<g id="edge3_Node000003_Node000004" class="edge">
<title>Node3&#45;&gt;Node4</title>
<g id="a_edge3_Node000003_Node000004"><a xlink:title=" ">
<path fill="none" stroke="#63b8ff" d="M234.16,-101.87C229.02,-93.19 223.17,-83.32 219.01,-76.3"/>
<polygon fill="#63b8ff" stroke="#63b8ff" points="231.05,-103.47 239.15,-110.29 237.07,-99.9 231.05,-103.47"/>
</a>
</g>
</g>
<!-- Node5 -->
<g id="Node000005" class="node">
<title>Node5</title>
<g id="a_Node000005"><a xlink:href="assets_8cpp.html" target="_top" xlink:title="Inline helpers and constructors for runtime asset structures.">
<polygon fill="white" stroke="#666666" points="332.5,-20 268.5,-20 268.5,0 332.5,0 332.5,-20"/>
<text xml:space="preserve" text-anchor="middle" x="300.5" y="-6.5" font-family="Helvetica,sans-Serif" font-size="10.00">assets.cpp</text>
</a>
</g>
</g>
<!-- Node4&#45;&gt;Node5 -->
<g id="edge4_Node000004_Node000005" class="edge">
<title>Node4&#45;&gt;Node5</title>
<g id="a_edge4_Node000004_Node000005"><a xlink:title=" ">
<path fill="none" stroke="#63b8ff" d="M238.4,-49.54C253.51,-40.17 272.3,-28.51 285.23,-20.48"/>
<polygon fill="#63b8ff" stroke="#63b8ff" points="236.59,-46.55 229.94,-54.8 240.28,-52.5 236.59,-46.55"/>
</a>
</g>
</g>
<!-- Node6 -->
<g id="Node000006" class="node">
<title>Node6</title>
<g id="a_Node000006"><a xlink:href="compiler_8cpp.html" target="_top" xlink:title="Slang&#45;based shader compilation pipeline implementation.">
<polygon fill="white" stroke="#666666" points="422.25,-20 350.75,-20 350.75,0 422.25,0 422.25,-20"/>
<text xml:space="preserve" text-anchor="middle" x="386.5" y="-6.5" font-family="Helvetica,sans-Serif" font-size="10.00">compiler.cpp</text>
</a>
</g>
</g>
<!-- Node4&#45;&gt;Node6 -->
<g id="edge5_Node000004_Node000006" class="edge">
<title>Node4&#45;&gt;Node6</title>
<g id="a_edge5_Node000004_Node000006"><a xlink:title=" ">
<path fill="none" stroke="#63b8ff" d="M254.58,-52.18C285.76,-42.44 327.94,-29.28 356.13,-20.48"/>
<polygon fill="#63b8ff" stroke="#63b8ff" points="253.58,-48.82 245.08,-55.14 255.67,-55.5 253.58,-48.82"/>
</a>
</g>
</g>
<!-- Node7 -->
<g id="Node000007" class="node">
<title>Node7</title>
<g id="a_Node000007"><a xlink:href="loader_8cpp.html" target="_top" xlink:title="glTF loading and conversion into runtime asset structures.">
<polygon fill="white" stroke="#666666" points="158,-20 97,-20 97,0 158,0 158,-20"/>
<text xml:space="preserve" text-anchor="middle" x="127.5" y="-6.5" font-family="Helvetica,sans-Serif" font-size="10.00">loader.cpp</text>
</a>
</g>
</g>
<!-- Node4&#45;&gt;Node7 -->
<g id="edge6_Node000004_Node000007" class="edge">
<title>Node4&#45;&gt;Node7</title>
<g id="a_edge6_Node000004_Node000007"><a xlink:title=" ">
<path fill="none" stroke="#63b8ff" d="M188.88,-49.54C173.95,-40.17 155.38,-28.51 142.6,-20.48"/>
<polygon fill="#63b8ff" stroke="#63b8ff" points="186.91,-52.44 197.24,-54.79 190.63,-46.51 186.91,-52.44"/>
</a>
</g>
</g>
<!-- Node8 -->
<g id="Node000008" class="node">
<title>Node8</title>
<g id="a_Node000008"><a xlink:href="optimizer_8cpp.html" target="_top" xlink:title="Mesh optimization and multi&#45;LOD generation implementation.">
<polygon fill="white" stroke="#666666" points="250.75,-20 176.25,-20 176.25,0 250.75,0 250.75,-20"/>
<text xml:space="preserve" text-anchor="middle" x="213.5" y="-6.5" font-family="Helvetica,sans-Serif" font-size="10.00">optimizer.cpp</text>
</a>
</g>
</g>
<!-- Node4&#45;&gt;Node8 -->
<g id="edge7_Node000004_Node000008" class="edge">
<title>Node4&#45;&gt;Node8</title>
<g id="a_edge7_Node000004_Node000008"><a xlink:title=" ">
<path fill="none" stroke="#63b8ff" d="M213.5,-44.13C213.5,-35.9 213.5,-26.85 213.5,-20.3"/>
<polygon fill="#63b8ff" stroke="#63b8ff" points="210,-44.08 213.5,-54.08 217,-44.08 210,-44.08"/>
</a>
</g>
</g>
<!-- Node9&#45;&gt;Node4 -->
<g id="edge10_Node000009_Node000004" class="edge">
<title>Node9&#45;&gt;Node4</title>
<g id="a_edge10_Node000009_Node000004"><a xlink:title=" ">
<path fill="none" stroke="#63b8ff" d="M71.87,-108.79C105.1,-98.99 151.09,-85.42 181.54,-76.43"/>
<polygon fill="#63b8ff" stroke="#63b8ff" points="71.18,-105.35 62.58,-111.53 73.16,-112.06 71.18,-105.35"/>
</a>
</g>
</g>
<!-- Node10&#45;&gt;Node4 -->
<g id="edge12_Node000010_Node000004" class="edge">
<title>Node10&#45;&gt;Node4</title>
<g id="a_edge12_Node000010_Node000004"><a xlink:title=" ">
<path fill="none" stroke="#63b8ff" d="M143.3,-106.08C160.3,-96.62 181.78,-84.66 196.47,-76.48"/>
<polygon fill="#63b8ff" stroke="#63b8ff" points="141.75,-102.94 134.72,-110.86 145.16,-109.05 141.75,-102.94"/>
</a>
</g>
</g>
<!-- Node11&#45;&gt;Node5 -->
<g id="edge16_Node000011_Node000005" class="edge">
<title>Node11&#45;&gt;Node5</title>
<g id="a_edge16_Node000011_Node000005"><a xlink:title=" ">
<path fill="none" stroke="#63b8ff" d="M300.5,-44.13C300.5,-35.9 300.5,-26.85 300.5,-20.3"/>
<polygon fill="#63b8ff" stroke="#63b8ff" points="297,-44.08 300.5,-54.08 304,-44.08 297,-44.08"/>
</a>
</g>
</g>
<!-- Node11&#45;&gt;Node6 -->
<g id="edge17_Node000011_Node000006" class="edge">
<title>Node11&#45;&gt;Node6</title>
<g id="a_edge17_Node000011_Node000006"><a xlink:title=" ">
<path fill="none" stroke="#63b8ff" d="M325.12,-49.54C340.05,-40.17 358.62,-28.51 371.4,-20.48"/>
<polygon fill="#63b8ff" stroke="#63b8ff" points="323.37,-46.51 316.76,-54.79 327.09,-52.44 323.37,-46.51"/>
</a>
</g>
</g>
<!-- Node11&#45;&gt;Node7 -->
<g id="edge18_Node000011_Node000007" class="edge">
<title>Node11&#45;&gt;Node7</title>
<g id="a_edge18_Node000011_Node000007"><a xlink:title=" ">
<path fill="none" stroke="#63b8ff" d="M264.01,-53.61C232.46,-43.76 187.39,-29.69 157.8,-20.46"/>
<polygon fill="#63b8ff" stroke="#63b8ff" points="262.94,-56.94 273.53,-56.58 265.03,-50.26 262.94,-56.94"/>
</a>
</g>
</g>
<!-- Node11&#45;&gt;Node8 -->
<g id="edge19_Node000011_Node000008" class="edge">
<title>Node11&#45;&gt;Node8</title>
<g id="a_edge19_Node000011_Node000008"><a xlink:title=" ">
<path fill="none" stroke="#63b8ff" d="M275.6,-49.54C260.49,-40.17 241.7,-28.51 228.77,-20.48"/>
<polygon fill="#63b8ff" stroke="#63b8ff" points="273.72,-52.5 284.06,-54.8 277.41,-46.55 273.72,-52.5"/>
</a>
</g>
</g>
</g>
</svg>
