<?xml version="1.0" encoding="UTF-8" standalone="no"?>
<!DOCTYPE svg PUBLIC "-//W3C//DTD SVG 1.1//EN"
 "http://www.w3.org/Graphics/SVG/1.1/DTD/svg11.dtd">
<!-- Generated by graphviz version 13.1.1 (0)
 -->
<!-- Title: importer.hpp Pages: 1 -->
<svg width="1648pt" height="252pt"
 viewBox="0.00 0.00 1648.00 252.00" xmlns="http://www.w3.org/2000/svg" xmlns:xlink="http://www.w3.org/1999/xlink">
<g id="graph0" class="graph" transform="scale(1 1) rotate(0) translate(4 248)">
<title>importer.hpp</title>
<!-- Node1 -->
<g id="Node000001" class="node">
<title>Node1</title>
<g id="a_Node000001"><a xlink:title="High&#45;level import facade that wires loader and optimizer.">
<polygon fill="#999999" stroke="#666666" points="1001.5,-244 931.5,-244 931.5,-224 1001.5,-224 1001.5,-244"/>
<text xml:space="preserve" text-anchor="middle" x="966.5" y="-230.5" font-family="Helvetica,sans-Serif" font-size="10.00">importer.hpp</text>
</a>
</g>
</g>
<!-- Node2 -->
<g id="Node000002" class="node">
<title>Node2</title>
<g id="a_Node000002"><a xlink:href="def_8hpp.html" target="_top" xlink:title=" ">
<polygon fill="white" stroke="#666666" points="899.62,-76 851.38,-76 851.38,-56 899.62,-56 899.62,-76"/>
<text xml:space="preserve" text-anchor="middle" x="875.5" y="-62.5" font-family="Helvetica,sans-Serif" font-size="10.00">def.hpp</text>
</a>
</g>
</g>
<!-- Node1&#45;&gt;Node2 -->
<g id="edge1_Node000001_Node000002" class="edge">
<title>Node1&#45;&gt;Node2</title>
<g id="a_edge1_Node000001_Node000002"><a xlink:title=" ">
<path fill="none" stroke="#63b8ff" d="M931.29,-225.03C911.54,-218.57 888.52,-207.27 876.5,-188 857.3,-157.21 863.55,-112.88 869.65,-87.3"/>
<polygon fill="#63b8ff" stroke="#63b8ff" points="872.98,-88.42 872.14,-77.86 866.21,-86.64 872.98,-88.42"/>
</a>
</g>
</g>
<!-- Node19 -->
<g id="Node000019" class="node">
<title>Node19</title>
<g id="a_Node000019"><a xlink:href="assets_8hpp.html" target="_top" xlink:title="Core data structures owned and returned by the importer.">
<polygon fill="white" stroke="#666666" points="955.5,-132 891.5,-132 891.5,-112 955.5,-112 955.5,-132"/>
<text xml:space="preserve" text-anchor="middle" x="923.5" y="-118.5" font-family="Helvetica,sans-Serif" font-size="10.00">assets.hpp</text>
</a>
</g>
</g>
<!-- Node1&#45;&gt;Node19 -->
<g id="edge18_Node000001_Node000019" class="edge">
<title>Node1&#45;&gt;Node19</title>
<g id="a_edge18_Node000001_Node000019"><a xlink:title=" ">
<path fill="none" stroke="#63b8ff" d="M931.78,-223.54C914.02,-216.75 893.98,-205.61 883.5,-188 873.68,-171.5 887.79,-152.85 901.89,-139.77"/>
<polygon fill="#63b8ff" stroke="#63b8ff" points="904,-142.58 909.31,-133.41 899.44,-137.27 904,-142.58"/>
</a>
</g>
</g>
<!-- Node20 -->
<g id="Node000020" class="node">
<title>Node20</title>
<g id="a_Node000020"><a xlink:href="compiler_8hpp.html" target="_top" xlink:title="Public API for shader compilation.">
<polygon fill="white" stroke="#666666" points="1136.25,-188 1064.75,-188 1064.75,-168 1136.25,-168 1136.25,-188"/>
<text xml:space="preserve" text-anchor="middle" x="1100.5" y="-174.5" font-family="Helvetica,sans-Serif" font-size="10.00">compiler.hpp</text>
</a>
</g>
</g>
<!-- Node1&#45;&gt;Node20 -->
<g id="edge20_Node000001_Node000020" class="edge">
<title>Node1&#45;&gt;Node20</title>
<g id="a_edge20_Node000001_Node000020"><a xlink:title=" ">
<path fill="none" stroke="#63b8ff" d="M989.84,-223.59C1011.04,-215.05 1042.57,-202.35 1066.55,-192.68"/>
<polygon fill="#63b8ff" stroke="#63b8ff" points="1067.61,-196.03 1075.57,-189.05 1064.99,-189.54 1067.61,-196.03"/>
</a>
</g>
</g>
<!-- Node21 -->
<g id="Node000021" class="node">
<title>Node21</title>
<g id="a_Node000021"><a xlink:href="loader_8hpp.html" target="_top" xlink:title="Public API to load and convert source assets (e.g., glTF).">
<polygon fill="white" stroke="#666666" points="954,-188 893,-188 893,-168 954,-168 954,-188"/>
<text xml:space="preserve" text-anchor="middle" x="923.5" y="-174.5" font-family="Helvetica,sans-Serif" font-size="10.00">loader.hpp</text>
</a>
</g>
</g>
<!-- Node1&#45;&gt;Node21 -->
<g id="edge23_Node000001_Node000021" class="edge">
<title>Node1&#45;&gt;Node21</title>
<g id="a_edge23_Node000001_Node000021"><a xlink:title=" ">
<path fill="none" stroke="#63b8ff" d="M959.01,-223.59C953.21,-216.32 945.01,-206.02 937.95,-197.15"/>
<polygon fill="#63b8ff" stroke="#63b8ff" points="940.81,-195.12 931.85,-189.48 935.34,-199.49 940.81,-195.12"/>
</a>
</g>
</g>
<!-- Node22 -->
<g id="Node000022" class="node">
<title>Node22</title>
<g id="a_Node000022"><a xlink:href="optimizer_8hpp.html" target="_top" xlink:title="Public API for mesh optimization and LOD generation.">
<polygon fill="white" stroke="#666666" points="1046.75,-188 972.25,-188 972.25,-168 1046.75,-168 1046.75,-188"/>
<text xml:space="preserve" text-anchor="middle" x="1009.5" y="-174.5" font-family="Helvetica,sans-Serif" font-size="10.00">optimizer.hpp</text>
</a>
</g>
</g>
<!-- Node1&#45;&gt;Node22 -->
<g id="edge25_Node000001_Node000022" class="edge">
<title>Node1&#45;&gt;Node22</title>
<g id="a_edge25_Node000001_Node000022"><a xlink:title=" ">
<path fill="none" stroke="#63b8ff" d="M973.99,-223.59C979.79,-216.32 987.99,-206.02 995.05,-197.15"/>
<polygon fill="#63b8ff" stroke="#63b8ff" points="997.66,-199.49 1001.15,-189.48 992.19,-195.12 997.66,-199.49"/>
</a>
</g>
</g>
<!-- Node23 -->
<g id="Node000023" class="node">
<title>Node23</title>
<g id="a_Node000023"><a xlink:href="options_8hpp.html" target="_top" xlink:title="Import configuration flags.">
<polygon fill="white" stroke="#666666" points="1480.62,-132 1414.38,-132 1414.38,-112 1480.62,-112 1480.62,-132"/>
<text xml:space="preserve" text-anchor="middle" x="1447.5" y="-118.5" font-family="Helvetica,sans-Serif" font-size="10.00">options.hpp</text>
</a>
</g>
</g>
<!-- Node1&#45;&gt;Node23 -->
<g id="edge27_Node000001_Node000023" class="edge">
<title>Node1&#45;&gt;Node23</title>
<g id="a_edge27_Node000001_Node000023"><a xlink:title=" ">
<path fill="none" stroke="#63b8ff" d="M1001.87,-224.91C1087.88,-205.24 1307.89,-154.93 1402.81,-133.22"/>
<polygon fill="#63b8ff" stroke="#63b8ff" points="1403.57,-136.64 1412.53,-131 1402.01,-129.81 1403.57,-136.64"/>
</a>
</g>
</g>
<!-- Node3 -->
<g id="Node000003" class="node">
<title>Node3</title>
<g id="a_Node000003"><a xlink:title=" ">
<polygon fill="#e0e0e0" stroke="#999999" points="61,-20 0,-20 0,0 61,0 61,-20"/>
<text xml:space="preserve" text-anchor="middle" x="30.5" y="-6.5" font-family="Helvetica,sans-Serif" font-size="10.00">filesystem</text>
</a>
</g>
</g>
<!-- Node2&#45;&gt;Node3 -->
<g id="edge2_Node000002_Node000003" class="edge">
<title>Node2&#45;&gt;Node3</title>
<g id="a_edge2_Node000002_Node000003"><a xlink:title=" ">
<path fill="none" stroke="#63b8ff" d="M850.99,-65.1C753.65,-65.21 384.97,-62.69 72.51,-20.02"/>
<polygon fill="#63b8ff" stroke="#63b8ff" points="73.3,-16.6 62.92,-18.69 72.34,-23.53 73.3,-16.6"/>
</a>
</g>
</g>
<!-- Node4 -->
<g id="Node000004" class="node">
<title>Node4</title>
<g id="a_Node000004"><a xlink:title=" ">
<polygon fill="#e0e0e0" stroke="#999999" points="119.5,-20 79.5,-20 79.5,0 119.5,0 119.5,-20"/>
<text xml:space="preserve" text-anchor="middle" x="99.5" y="-6.5" font-family="Helvetica,sans-Serif" font-size="10.00">string</text>
</a>
</g>
</g>
<!-- Node2&#45;&gt;Node4 -->
<g id="edge3_Node000002_Node000004" class="edge">
<title>Node2&#45;&gt;Node4</title>
<g id="a_edge3_Node000002_Node000004"><a xlink:title=" ">
<path fill="none" stroke="#63b8ff" d="M851.24,-64.32C741.95,-61.16 293.83,-46.91 131.15,-19.97"/>
<polygon fill="#63b8ff" stroke="#63b8ff" points="131.89,-16.55 121.43,-18.27 130.68,-23.44 131.89,-16.55"/>
</a>
</g>
</g>
<!-- Node5 -->
<g id="Node000005" class="node">
<title>Node5</title>
<g id="a_Node000005"><a xlink:title=" ">
<polygon fill="#e0e0e0" stroke="#999999" points="181,-20 138,-20 138,0 181,0 181,-20"/>
<text xml:space="preserve" text-anchor="middle" x="159.5" y="-6.5" font-family="Helvetica,sans-Serif" font-size="10.00">vector</text>
</a>
</g>
</g>
<!-- Node2&#45;&gt;Node5 -->
<g id="edge4_Node000002_Node000005" class="edge">
<title>Node2&#45;&gt;Node5</title>
<g id="a_edge4_Node000002_Node000005"><a xlink:title=" ">
<path fill="none" stroke="#63b8ff" d="M850.95,-65.38C762.79,-66.33 453.89,-66.09 192.55,-20.17"/>
<polygon fill="#63b8ff" stroke="#63b8ff" points="193.27,-16.75 182.81,-18.43 192.03,-23.64 193.27,-16.75"/>
</a>
</g>
</g>
<!-- Node6 -->
<g id="Node000006" class="node">
<title>Node6</title>
<g id="a_Node000006"><a xlink:title=" ">
<polygon fill="#e0e0e0" stroke="#999999" points="250.12,-20 198.88,-20 198.88,0 250.12,0 250.12,-20"/>
<text xml:space="preserve" text-anchor="middle" x="224.5" y="-6.5" font-family="Helvetica,sans-Serif" font-size="10.00">memory</text>
</a>
</g>
</g>
<!-- Node2&#45;&gt;Node6 -->
<g id="edge5_Node000002_Node000006" class="edge">
<title>Node2&#45;&gt;Node6</title>
<g id="a_edge5_Node000002_Node000006"><a xlink:title=" ">
<path fill="none" stroke="#63b8ff" d="M850.91,-64.84C768.6,-63.97 495.24,-58.33 261.48,-20.22"/>
<polygon fill="#63b8ff" stroke="#63b8ff" points="262.31,-16.81 251.87,-18.63 261.17,-23.72 262.31,-16.81"/>
</a>
</g>
</g>
<!-- Node7 -->
<g id="Node000007" class="node">
<title>Node7</title>
<g id="a_Node000007"><a xlink:title=" ">
<polygon fill="#e0e0e0" stroke="#999999" points="1640.12,-20 1594.88,-20 1594.88,0 1640.12,0 1640.12,-20"/>
<text xml:space="preserve" text-anchor="middle" x="1617.5" y="-6.5" font-family="Helvetica,sans-Serif" font-size="10.00">cstdint</text>
</a>
</g>
</g>
<!-- Node2&#45;&gt;Node7 -->
<g id="edge6_Node000002_Node000007" class="edge">
<title>Node2&#45;&gt;Node7</title>
<g id="a_edge6_Node000002_Node000007"><a xlink:title=" ">
<path fill="none" stroke="#63b8ff" d="M899.97,-65.38C990.06,-66.39 1311.62,-66.43 1583.34,-20.2"/>
<polygon fill="#63b8ff" stroke="#63b8ff" points="1583.86,-23.66 1593.12,-18.51 1582.67,-16.77 1583.86,-23.66"/>
</a>
</g>
</g>
<!-- Node8 -->
<g id="Node000008" class="node">
<title>Node8</title>
<g id="a_Node000008"><a xlink:title=" ">
<polygon fill="#e0e0e0" stroke="#999999" points="363.25,-20 267.75,-20 267.75,0 363.25,0 363.25,-20"/>
<text xml:space="preserve" text-anchor="middle" x="315.5" y="-6.5" font-family="Helvetica,sans-Serif" font-size="10.00">mr&#45;math/math.hpp</text>
</a>
</g>
</g>
<!-- Node2&#45;&gt;Node8 -->
<g id="edge7_Node000002_Node000008" class="edge">
<title>Node2&#45;&gt;Node8</title>
<g id="a_edge7_Node000002_Node000008"><a xlink:title=" ">
<path fill="none" stroke="#63b8ff" d="M851.1,-63.4C779.65,-58.6 564.51,-43.27 374.97,-20.23"/>
<polygon fill="#63b8ff" stroke="#63b8ff" points="375.52,-16.77 365.17,-19.02 374.67,-23.72 375.52,-16.77"/>
</a>
</g>
</g>
<!-- Node9 -->
<g id="Node000009" class="node">
<title>Node9</title>
<g id="a_Node000009"><a xlink:title=" ">
<polygon fill="#e0e0e0" stroke="#999999" points="495.25,-20 381.75,-20 381.75,0 495.25,0 495.25,-20"/>
<text xml:space="preserve" text-anchor="middle" x="438.5" y="-6.5" font-family="Helvetica,sans-Serif" font-size="10.00">glm/detail/qualifier.hpp</text>
</a>
</g>
</g>
<!-- Node2&#45;&gt;Node9 -->
<g id="edge8_Node000002_Node000009" class="edge">
<title>Node2&#45;&gt;Node9</title>
<g id="a_edge8_Node000002_Node000009"><a xlink:title=" ">
<path fill="none" stroke="#63b8ff" d="M851.18,-62.18C793.44,-55.45 643.33,-37.79 506.79,-20.28"/>
<polygon fill="#63b8ff" stroke="#63b8ff" points="507.6,-16.85 497.23,-19.05 506.7,-23.8 507.6,-16.85"/>
</a>
</g>
</g>
<!-- Node10 -->
<g id="Node000010" class="node">
<title>Node10</title>
<g id="a_Node000010"><a xlink:title=" ">
<polygon fill="#e0e0e0" stroke="#999999" points="649.88,-20 513.12,-20 513.12,0 649.88,0 649.88,-20"/>
<text xml:space="preserve" text-anchor="middle" x="581.5" y="-6.5" font-family="Helvetica,sans-Serif" font-size="10.00">glm/ext/matrix_float4x4.hpp</text>
</a>
</g>
</g>
<!-- Node2&#45;&gt;Node10 -->
<g id="edge9_Node000002_Node000010" class="edge">
<title>Node2&#45;&gt;Node10</title>
<g id="a_edge9_Node000002_Node000010"><a xlink:title=" ">
<path fill="none" stroke="#63b8ff" d="M850.94,-60.49C805.89,-52.22 708.78,-34.38 644.29,-22.53"/>
<polygon fill="#63b8ff" stroke="#63b8ff" points="645,-19.1 634.53,-20.74 643.74,-25.99 645,-19.1"/>
</a>
</g>
</g>
<!-- Node11 -->
<g id="Node000011" class="node">
<title>Node11</title>
<g id="a_Node000011"><a xlink:title=" ">
<polygon fill="#e0e0e0" stroke="#999999" points="794.62,-20 668.38,-20 668.38,0 794.62,0 794.62,-20"/>
<text xml:space="preserve" text-anchor="middle" x="731.5" y="-6.5" font-family="Helvetica,sans-Serif" font-size="10.00">glm/ext/vector_float2.hpp</text>
</a>
</g>
</g>
<!-- Node2&#45;&gt;Node11 -->
<g id="edge10_Node000002_Node000011" class="edge">
<title>Node2&#45;&gt;Node11</title>
<g id="a_edge10_Node000002_Node000011"><a xlink:title=" ">
<path fill="none" stroke="#63b8ff" d="M851.07,-55.84C828.04,-47.2 793.26,-34.16 767.14,-24.36"/>
<polygon fill="#63b8ff" stroke="#63b8ff" points="768.54,-21.15 757.95,-20.92 766.08,-27.71 768.54,-21.15"/>
</a>
</g>
</g>
<!-- Node12 -->
<g id="Node000012" class="node">
<title>Node12</title>
<g id="a_Node000012"><a xlink:title=" ">
<polygon fill="#e0e0e0" stroke="#999999" points="938.62,-20 812.38,-20 812.38,0 938.62,0 938.62,-20"/>
<text xml:space="preserve" text-anchor="middle" x="875.5" y="-6.5" font-family="Helvetica,sans-Serif" font-size="10.00">glm/ext/vector_float3.hpp</text>
</a>
</g>
</g>
<!-- Node2&#45;&gt;Node12 -->
<g id="edge11_Node000002_Node000012" class="edge">
<title>Node2&#45;&gt;Node12</title>
<g id="a_edge11_Node000002_Node000012"><a xlink:title=" ">
<path fill="none" stroke="#63b8ff" d="M875.5,-55.59C875.5,-49.01 875.5,-39.96 875.5,-31.73"/>
<polygon fill="#63b8ff" stroke="#63b8ff" points="879,-31.81 875.5,-21.81 872,-31.81 879,-31.81"/>
</a>
</g>
</g>
<!-- Node13 -->
<g id="Node000013" class="node">
<title>Node13</title>
<g id="a_Node000013"><a xlink:title=" ">
<polygon fill="#e0e0e0" stroke="#999999" points="1082.62,-20 956.38,-20 956.38,0 1082.62,0 1082.62,-20"/>
<text xml:space="preserve" text-anchor="middle" x="1019.5" y="-6.5" font-family="Helvetica,sans-Serif" font-size="10.00">glm/ext/vector_float4.hpp</text>
</a>
</g>
</g>
<!-- Node2&#45;&gt;Node13 -->
<g id="edge12_Node000002_Node000013" class="edge">
<title>Node2&#45;&gt;Node13</title>
<g id="a_edge12_Node000002_Node000013"><a xlink:title=" ">
<path fill="none" stroke="#63b8ff" d="M899.93,-55.84C922.96,-47.2 957.74,-34.16 983.86,-24.36"/>
<polygon fill="#63b8ff" stroke="#63b8ff" points="984.92,-27.71 993.05,-20.92 982.46,-21.15 984.92,-27.71"/>
</a>
</g>
</g>
<!-- Node14 -->
<g id="Node000014" class="node">
<title>Node14</title>
<g id="a_Node000014"><a xlink:title=" ">
<polygon fill="#e0e0e0" stroke="#999999" points="1170.12,-20 1100.88,-20 1100.88,0 1170.12,0 1170.12,-20"/>
<text xml:space="preserve" text-anchor="middle" x="1135.5" y="-6.5" font-family="Helvetica,sans-Serif" font-size="10.00">glm/glm.hpp</text>
</a>
</g>
</g>
<!-- Node2&#45;&gt;Node14 -->
<g id="edge13_Node000002_Node000014" class="edge">
<title>Node2&#45;&gt;Node14</title>
<g id="a_edge13_Node000002_Node000014"><a xlink:title=" ">
<path fill="none" stroke="#63b8ff" d="M899.96,-59.92C943.27,-50.92 1034.1,-32.06 1089.45,-20.56"/>
<polygon fill="#63b8ff" stroke="#63b8ff" points="1090.13,-24 1099.21,-18.54 1088.7,-17.14 1090.13,-24"/>
</a>
</g>
</g>
<!-- Node15 -->
<g id="Node000015" class="node">
<title>Node15</title>
<g id="a_Node000015"><a xlink:title=" ">
<polygon fill="#e0e0e0" stroke="#999999" points="1293.12,-20 1187.88,-20 1187.88,0 1293.12,0 1293.12,-20"/>
<text xml:space="preserve" text-anchor="middle" x="1240.5" y="-6.5" font-family="Helvetica,sans-Serif" font-size="10.00">glm/gtc/type_ptr.hpp</text>
</a>
</g>
</g>
<!-- Node2&#45;&gt;Node15 -->
<g id="edge14_Node000002_Node000015" class="edge">
<title>Node2&#45;&gt;Node15</title>
<g id="a_edge14_Node000002_Node000015"><a xlink:title=" ">
<path fill="none" stroke="#63b8ff" d="M900.02,-61.37C955.89,-53.11 1094.18,-32.65 1176.3,-20.5"/>
<polygon fill="#63b8ff" stroke="#63b8ff" points="1176.62,-23.99 1186,-19.06 1175.6,-17.06 1176.62,-23.99"/>
</a>
</g>
</g>
<!-- Node16 -->
<g id="Node000016" class="node">
<title>Node16</title>
<g id="a_Node000016"><a xlink:title=" ">
<polygon fill="#e0e0e0" stroke="#999999" points="1409.75,-20 1311.25,-20 1311.25,0 1409.75,0 1409.75,-20"/>
<text xml:space="preserve" text-anchor="middle" x="1360.5" y="-6.5" font-family="Helvetica,sans-Serif" font-size="10.00">slang&#45;com&#45;helper.h</text>
</a>
</g>
</g>
<!-- Node2&#45;&gt;Node16 -->
<g id="edge15_Node000002_Node000016" class="edge">
<title>Node2&#45;&gt;Node16</title>
<g id="a_edge15_Node000002_Node000016"><a xlink:title=" ">
<path fill="none" stroke="#63b8ff" d="M900.1,-62.83C964.1,-57.1 1141.29,-40.67 1299.49,-20.34"/>
<polygon fill="#63b8ff" stroke="#63b8ff" points="1299.88,-23.82 1309.35,-19.06 1298.98,-16.88 1299.88,-23.82"/>
</a>
</g>
</g>
<!-- Node17 -->
<g id="Node000017" class="node">
<title>Node17</title>
<g id="a_Node000017"><a xlink:title=" ">
<polygon fill="#e0e0e0" stroke="#999999" points="1511.25,-20 1427.75,-20 1427.75,0 1511.25,0 1511.25,-20"/>
<text xml:space="preserve" text-anchor="middle" x="1469.5" y="-6.5" font-family="Helvetica,sans-Serif" font-size="10.00">slang&#45;com&#45;ptr.h</text>
</a>
</g>
</g>
<!-- Node2&#45;&gt;Node17 -->
<g id="edge16_Node000002_Node000017" class="edge">
<title>Node2&#45;&gt;Node17</title>
<g id="a_edge16_Node000002_Node000017"><a xlink:title=" ">
<path fill="none" stroke="#63b8ff" d="M899.94,-63.78C975.22,-59.84 1210.44,-46.3 1416.2,-20.18"/>
<polygon fill="#63b8ff" stroke="#63b8ff" points="1416.55,-23.66 1426.02,-18.92 1415.66,-16.72 1416.55,-23.66"/>
</a>
</g>
</g>
<!-- Node18 -->
<g id="Node000018" class="node">
<title>Node18</title>
<g id="a_Node000018"><a xlink:title=" ">
<polygon fill="#e0e0e0" stroke="#999999" points="1577.25,-20 1529.75,-20 1529.75,0 1577.25,0 1577.25,-20"/>
<text xml:space="preserve" text-anchor="middle" x="1553.5" y="-6.5" font-family="Helvetica,sans-Serif" font-size="10.00">slang.h</text>
</a>
</g>
</g>
<!-- Node2&#45;&gt;Node18 -->
<g id="edge17_Node000002_Node000018" class="edge">
<title>Node2&#45;&gt;Node18</title>
<g id="a_edge17_Node000002_Node000018"><a xlink:title=" ">
<path fill="none" stroke="#63b8ff" d="M900.01,-65.02C984.63,-64.72 1272.28,-60.7 1518.16,-20.04"/>
<polygon fill="#63b8ff" stroke="#63b8ff" points="1518.7,-23.5 1527.98,-18.39 1517.54,-16.6 1518.7,-23.5"/>
</a>
</g>
</g>
<!-- Node19&#45;&gt;Node2 -->
<g id="edge19_Node000019_Node000002" class="edge">
<title>Node19&#45;&gt;Node2</title>
<g id="a_edge19_Node000019_Node000002"><a xlink:title=" ">
<path fill="none" stroke="#63b8ff" d="M915.14,-111.59C908.6,-104.24 899.32,-93.8 891.38,-84.87"/>
<polygon fill="#63b8ff" stroke="#63b8ff" points="894.03,-82.58 884.77,-77.43 888.8,-87.23 894.03,-82.58"/>
</a>
</g>
</g>
<!-- Node20&#45;&gt;Node2 -->
<g id="edge21_Node000020_Node000002" class="edge">
<title>Node20&#45;&gt;Node2</title>
<g id="a_edge21_Node000020_Node000002"><a xlink:title=" ">
<path fill="none" stroke="#63b8ff" d="M1081.32,-167.62C1041.88,-148.34 951.49,-104.15 904.72,-81.29"/>
<polygon fill="#63b8ff" stroke="#63b8ff" points="906.52,-78.27 895.99,-77.02 903.44,-84.56 906.52,-78.27"/>
</a>
</g>
</g>
<!-- Node20&#45;&gt;Node19 -->
<g id="edge22_Node000020_Node000019" class="edge">
<title>Node20&#45;&gt;Node19</title>
<g id="a_edge22_Node000020_Node000019"><a xlink:title=" ">
<path fill="none" stroke="#63b8ff" d="M1069.67,-167.59C1040.79,-158.78 997.39,-145.54 965.38,-135.78"/>
<polygon fill="#63b8ff" stroke="#63b8ff" points="966.61,-132.49 956.02,-132.92 964.56,-139.19 966.61,-132.49"/>
</a>
</g>
</g>
<!-- Node21&#45;&gt;Node19 -->
<g id="edge24_Node000021_Node000019" class="edge">
<title>Node21&#45;&gt;Node19</title>
<g id="a_edge24_Node000021_Node000019"><a xlink:title=" ">
<path fill="none" stroke="#63b8ff" d="M923.5,-167.59C923.5,-161.01 923.5,-151.96 923.5,-143.73"/>
<polygon fill="#63b8ff" stroke="#63b8ff" points="927,-143.81 923.5,-133.81 920,-143.81 927,-143.81"/>
</a>
</g>
</g>
<!-- Node22&#45;&gt;Node19 -->
<g id="edge26_Node000022_Node000019" class="edge">
<title>Node22&#45;&gt;Node19</title>
<g id="a_edge26_Node000022_Node000019"><a xlink:title=" ">
<path fill="none" stroke="#63b8ff" d="M994.52,-167.59C981.77,-159.59 963.21,-147.93 948.26,-138.54"/>
<polygon fill="#63b8ff" stroke="#63b8ff" points="950.21,-135.64 939.88,-133.28 946.49,-141.57 950.21,-135.64"/>
</a>
</g>
</g>
<!-- Node23&#45;&gt;Node7 -->
<g id="edge28_Node000023_Node000007" class="edge">
<title>Node23&#45;&gt;Node7</title>
<g id="a_edge28_Node000023_Node000007"><a xlink:title=" ">
<path fill="none" stroke="#63b8ff" d="M1461.99,-111.62C1491.35,-92.63 1558.08,-49.45 1593.84,-26.31"/>
<polygon fill="#63b8ff" stroke="#63b8ff" points="1595.28,-29.55 1601.77,-21.18 1591.47,-23.67 1595.28,-29.55"/>
</a>
</g>
</g>
</g>
</svg>
