<?xml version="1.0" encoding="UTF-8" standalone="no"?>
<!DOCTYPE svg PUBLIC "-//W3C//DTD SVG 1.1//EN"
 "http://www.w3.org/Graphics/SVG/1.1/DTD/svg11.dtd">
<!-- Generated by graphviz version 13.1.1 (0)
 -->
<!-- Title: Graphical Class Hierarchy Pages: 1 -->
<svg width="251pt" height="116pt"
 viewBox="0.00 0.00 251.00 116.00" xmlns="http://www.w3.org/2000/svg" xmlns:xlink="http://www.w3.org/1999/xlink">
<g id="graph0" class="graph" transform="scale(1 1) rotate(0) translate(4 112)">
<title>Graphical Class Hierarchy</title>
<!-- Node0 -->
<g id="Node000000" class="node">
<title>Node0</title>
<g id="a_Node000000"><a xlink:title=" ">
<polygon fill="#e0e0e0" stroke="#999999" points="62.5,-70 0,-70 0,-50 62.5,-50 62.5,-70"/>
<text xml:space="preserve" text-anchor="middle" x="31.25" y="-56.5" font-family="Helvetica,sans-Serif" font-size="10.00">std::vector</text>
</a>
</g>
</g>
<!-- Node1 -->
<g id="Node000001" class="node">
<title>Node1</title>
<g id="a_Node000001"><a xlink:href="structmr_1_1importer_1_1IndexArray.html" target="_top" xlink:title="Contiguous array of triangle indices.">
<polygon fill="white" stroke="#666666" points="231.5,-108 109.75,-108 109.75,-88 231.5,-88 231.5,-108"/>
<text xml:space="preserve" text-anchor="middle" x="170.62" y="-94.5" font-family="Helvetica,sans-Serif" font-size="10.00">mr::importer::IndexArray</text>
</a>
</g>
</g>
<!-- Node0&#45;&gt;Node1 -->
<g id="edge1_Node000000_Node000001" class="edge">
<title>Node0&#45;&gt;Node1</title>
<g id="a_edge1_Node000000_Node000001"><a xlink:title=" ">
<path fill="none" stroke="#63b8ff" d="M73.76,-72.03C81.96,-74.37 90.49,-76.78 98.5,-79 108.72,-81.83 119.79,-84.82 130.09,-87.58"/>
<polygon fill="#63b8ff" stroke="#63b8ff" points="74.92,-68.72 64.35,-69.33 72.99,-75.45 74.92,-68.72"/>
</a>
</g>
</g>
<!-- Node2 -->
<g id="Node000002" class="node">
<title>Node2</title>
<g id="a_Node000002"><a xlink:href="structmr_1_1importer_1_1PositionArray.html" target="_top" xlink:title="Contiguous array of vertex positions.">
<polygon fill="white" stroke="#666666" points="237.12,-70 104.12,-70 104.12,-50 237.12,-50 237.12,-70"/>
<text xml:space="preserve" text-anchor="middle" x="170.62" y="-56.5" font-family="Helvetica,sans-Serif" font-size="10.00">mr::importer::PositionArray</text>
</a>
</g>
</g>
<!-- Node0&#45;&gt;Node2 -->
<g id="edge2_Node000000_Node000002" class="edge">
<title>Node0&#45;&gt;Node2</title>
<g id="a_edge2_Node000000_Node000002"><a xlink:title=" ">
<path fill="none" stroke="#63b8ff" d="M74.13,-60C83.52,-60 93.69,-60 103.79,-60"/>
<polygon fill="#63b8ff" stroke="#63b8ff" points="74.25,-56.5 64.25,-60 74.25,-63.5 74.25,-56.5"/>
</a>
</g>
</g>
<!-- Node3 -->
<g id="Node000003" class="node">
<title>Node3</title>
<g id="a_Node000003"><a xlink:href="structmr_1_1importer_1_1VertexAttributesArray.html" target="_top" xlink:title="Contiguous array of per&#45;vertex attributes.">
<polygon fill="white" stroke="#666666" points="242.75,-32 98.5,-32 98.5,0 242.75,0 242.75,-32"/>
<text xml:space="preserve" text-anchor="start" x="106.5" y="-18.5" font-family="Helvetica,sans-Serif" font-size="10.00">mr::importer::VertexAttributes</text>
<text xml:space="preserve" text-anchor="middle" x="170.62" y="-6.5" font-family="Helvetica,sans-Serif" font-size="10.00">Array</text>
</a>
</g>
</g>
<!-- Node0&#45;&gt;Node3 -->
<g id="edge3_Node000000_Node000003" class="edge">
<title>Node0&#45;&gt;Node3</title>
<g id="a_edge3_Node000000_Node000003"><a xlink:title=" ">
<path fill="none" stroke="#63b8ff" d="M73.55,-46.77C87.58,-42.28 103.44,-37.2 118.17,-32.48"/>
<polygon fill="#63b8ff" stroke="#63b8ff" points="72.64,-43.39 64.18,-49.77 74.77,-50.06 72.64,-43.39"/>
</a>
</g>
</g>
</g>
</svg>
