<?xml version="1.0" encoding="UTF-8" standalone="no"?>
<!DOCTYPE svg PUBLIC "-//W3C//DTD SVG 1.1//EN"
 "http://www.w3.org/Graphics/SVG/1.1/DTD/svg11.dtd">
<!-- Generated by graphviz version 13.1.1 (0)
 -->
<!-- Title: loader.cpp Pages: 1 -->
<svg width="2249pt" height="320pt"
 viewBox="0.00 0.00 2249.00 320.00" xmlns="http://www.w3.org/2000/svg" xmlns:xlink="http://www.w3.org/1999/xlink">
<g id="graph0" class="graph" transform="scale(1 1) rotate(0) translate(4 316)">
<title>loader.cpp</title>
<!-- Node1 -->
<g id="Node000001" class="node">
<title>Node1</title>
<g id="a_Node000001"><a xlink:title="glTF loading and conversion into runtime asset structures.">
<polygon fill="#999999" stroke="#666666" points="768.12,-312 707.12,-312 707.12,-292 768.12,-292 768.12,-312"/>
<text xml:space="preserve" text-anchor="middle" x="737.62" y="-298.5" font-family="Helvetica,sans-Serif" font-size="10.00">loader.cpp</text>
</a>
</g>
</g>
<!-- Node2 -->
<g id="Node000002" class="node">
<title>Node2</title>
<g id="a_Node000002"><a xlink:href="importer_8hpp.html" target="_top" xlink:title="High&#45;level import facade that wires loader and optimizer.">
<polygon fill="white" stroke="#666666" points="702.88,-256 580.38,-256 580.38,-236 702.88,-236 702.88,-256"/>
<text xml:space="preserve" text-anchor="middle" x="641.62" y="-242.5" font-family="Helvetica,sans-Serif" font-size="10.00">mr&#45;importer/importer.hpp</text>
</a>
</g>
</g>
<!-- Node1&#45;&gt;Node2 -->
<g id="edge1_Node000001_Node000002" class="edge">
<title>Node1&#45;&gt;Node2</title>
<g id="a_edge1_Node000001_Node000002"><a xlink:title=" ">
<path fill="none" stroke="#63b8ff" d="M720.9,-291.59C706.4,-283.44 685.15,-271.48 668.3,-262"/>
<polygon fill="#63b8ff" stroke="#63b8ff" points="670.23,-259.07 659.8,-257.22 666.8,-265.17 670.23,-259.07"/>
</a>
</g>
</g>
<!-- Node25 -->
<g id="Node000025" class="node">
<title>Node25</title>
<g id="a_Node000025"><a xlink:href="pch_8hpp.html" target="_top" xlink:title=" ">
<polygon fill="white" stroke="#666666" points="1351.88,-144 1301.38,-144 1301.38,-124 1351.88,-124 1351.88,-144"/>
<text xml:space="preserve" text-anchor="middle" x="1326.62" y="-130.5" font-family="Helvetica,sans-Serif" font-size="10.00">pch.hpp</text>
</a>
</g>
</g>
<!-- Node1&#45;&gt;Node25 -->
<g id="edge30_Node000001_Node000025" class="edge">
<title>Node1&#45;&gt;Node25</title>
<g id="a_edge30_Node000001_Node000025"><a xlink:title=" ">
<path fill="none" stroke="#63b8ff" d="M768.46,-292.31C868.38,-264.15 1182.94,-175.5 1290.3,-145.24"/>
<polygon fill="#63b8ff" stroke="#63b8ff" points="1291.06,-148.66 1299.73,-142.58 1289.16,-141.92 1291.06,-148.66"/>
</a>
</g>
</g>
<!-- Node3 -->
<g id="Node000003" class="node">
<title>Node3</title>
<g id="a_Node000003"><a xlink:href="def_8hpp.html" target="_top" xlink:title=" ">
<polygon fill="white" stroke="#666666" points="697.75,-82 649.5,-82 649.5,-62 697.75,-62 697.75,-82"/>
<text xml:space="preserve" text-anchor="middle" x="673.62" y="-68.5" font-family="Helvetica,sans-Serif" font-size="10.00">def.hpp</text>
</a>
</g>
</g>
<!-- Node2&#45;&gt;Node3 -->
<g id="edge2_Node000002_Node000003" class="edge">
<title>Node2&#45;&gt;Node3</title>
<g id="a_edge2_Node000002_Node000003"><a xlink:title=" ">
<path fill="none" stroke="#63b8ff" d="M580.01,-236.36C540.38,-227.73 499.13,-211.09 515.62,-180 541.41,-131.39 600.25,-100.81 638.4,-85.33"/>
<polygon fill="#63b8ff" stroke="#63b8ff" points="639.58,-88.63 647.63,-81.74 637.04,-82.11 639.58,-88.63"/>
</a>
</g>
</g>
<!-- Node20 -->
<g id="Node000020" class="node">
<title>Node20</title>
<g id="a_Node000020"><a xlink:href="assets_8hpp.html" target="_top" xlink:title="Core data structures owned and returned by the importer.">
<polygon fill="white" stroke="#666666" points="705.62,-144 641.62,-144 641.62,-124 705.62,-124 705.62,-144"/>
<text xml:space="preserve" text-anchor="middle" x="673.62" y="-130.5" font-family="Helvetica,sans-Serif" font-size="10.00">assets.hpp</text>
</a>
</g>
</g>
<!-- Node2&#45;&gt;Node20 -->
<g id="edge19_Node000002_Node000020" class="edge">
<title>Node2&#45;&gt;Node20</title>
<g id="a_edge19_Node000002_Node000020"><a xlink:title=" ">
<path fill="none" stroke="#63b8ff" d="M656.3,-235.54C667.23,-227.56 681.3,-215.03 687.62,-200 693.79,-185.35 689.27,-167.66 683.78,-154.43"/>
<polygon fill="#63b8ff" stroke="#63b8ff" points="687.01,-153.08 679.59,-145.52 680.68,-156.06 687.01,-153.08"/>
</a>
</g>
</g>
<!-- Node21 -->
<g id="Node000021" class="node">
<title>Node21</title>
<g id="a_Node000021"><a xlink:href="compiler_8hpp.html" target="_top" xlink:title="Public API for shader compilation.">
<polygon fill="white" stroke="#666666" points="806.38,-200 734.88,-200 734.88,-180 806.38,-180 806.38,-200"/>
<text xml:space="preserve" text-anchor="middle" x="770.62" y="-186.5" font-family="Helvetica,sans-Serif" font-size="10.00">compiler.hpp</text>
</a>
</g>
</g>
<!-- Node2&#45;&gt;Node21 -->
<g id="edge21_Node000002_Node000021" class="edge">
<title>Node2&#45;&gt;Node21</title>
<g id="a_edge21_Node000002_Node000021"><a xlink:title=" ">
<path fill="none" stroke="#63b8ff" d="M664.1,-235.59C684.41,-227.09 714.58,-214.46 737.63,-204.81"/>
<polygon fill="#63b8ff" stroke="#63b8ff" points="738.71,-208.15 746.58,-201.06 736.01,-201.7 738.71,-208.15"/>
</a>
</g>
</g>
<!-- Node22 -->
<g id="Node000022" class="node">
<title>Node22</title>
<g id="a_Node000022"><a xlink:href="loader_8hpp.html" target="_top" xlink:title="Public API to load and convert source assets (e.g., glTF).">
<polygon fill="white" stroke="#666666" points="586.12,-200 525.12,-200 525.12,-180 586.12,-180 586.12,-200"/>
<text xml:space="preserve" text-anchor="middle" x="555.62" y="-186.5" font-family="Helvetica,sans-Serif" font-size="10.00">loader.hpp</text>
</a>
</g>
</g>
<!-- Node2&#45;&gt;Node22 -->
<g id="edge24_Node000002_Node000022" class="edge">
<title>Node2&#45;&gt;Node22</title>
<g id="a_edge24_Node000002_Node000022"><a xlink:title=" ">
<path fill="none" stroke="#63b8ff" d="M626.64,-235.59C613.9,-227.59 595.33,-215.93 580.38,-206.54"/>
<polygon fill="#63b8ff" stroke="#63b8ff" points="582.33,-203.64 572,-201.28 578.61,-209.57 582.33,-203.64"/>
</a>
</g>
</g>
<!-- Node23 -->
<g id="Node000023" class="node">
<title>Node23</title>
<g id="a_Node000023"><a xlink:href="optimizer_8hpp.html" target="_top" xlink:title="Public API for mesh optimization and LOD generation.">
<polygon fill="white" stroke="#666666" points="678.88,-200 604.38,-200 604.38,-180 678.88,-180 678.88,-200"/>
<text xml:space="preserve" text-anchor="middle" x="641.62" y="-186.5" font-family="Helvetica,sans-Serif" font-size="10.00">optimizer.hpp</text>
</a>
</g>
</g>
<!-- Node2&#45;&gt;Node23 -->
<g id="edge26_Node000002_Node000023" class="edge">
<title>Node2&#45;&gt;Node23</title>
<g id="a_edge26_Node000002_Node000023"><a xlink:title=" ">
<path fill="none" stroke="#63b8ff" d="M641.62,-235.59C641.62,-229.01 641.62,-219.96 641.62,-211.73"/>
<polygon fill="#63b8ff" stroke="#63b8ff" points="645.13,-211.81 641.63,-201.81 638.13,-211.81 645.13,-211.81"/>
</a>
</g>
</g>
<!-- Node24 -->
<g id="Node000024" class="node">
<title>Node24</title>
<g id="a_Node000024"><a xlink:href="options_8hpp.html" target="_top" xlink:title="Import configuration flags.">
<polygon fill="white" stroke="#666666" points="375.75,-144 309.5,-144 309.5,-124 375.75,-124 375.75,-144"/>
<text xml:space="preserve" text-anchor="middle" x="342.62" y="-130.5" font-family="Helvetica,sans-Serif" font-size="10.00">options.hpp</text>
</a>
</g>
</g>
<!-- Node2&#45;&gt;Node24 -->
<g id="edge28_Node000002_Node000024" class="edge">
<title>Node2&#45;&gt;Node24</title>
<g id="a_edge28_Node000002_Node000024"><a xlink:title=" ">
<path fill="none" stroke="#63b8ff" d="M601.53,-235.53C569.04,-227.41 522.3,-214.72 482.62,-200 442.7,-185.19 398.4,-163.72 370.54,-149.57"/>
<polygon fill="#63b8ff" stroke="#63b8ff" points="372.2,-146.49 361.7,-145.04 369.01,-152.72 372.2,-146.49"/>
</a>
</g>
</g>
<!-- Node4 -->
<g id="Node000004" class="node">
<title>Node4</title>
<g id="a_Node000004"><a xlink:title=" ">
<polygon fill="#e0e0e0" stroke="#999999" points="1526.12,-20 1465.12,-20 1465.12,0 1526.12,0 1526.12,-20"/>
<text xml:space="preserve" text-anchor="middle" x="1495.62" y="-6.5" font-family="Helvetica,sans-Serif" font-size="10.00">filesystem</text>
</a>
</g>
</g>
<!-- Node3&#45;&gt;Node4 -->
<g id="edge3_Node000003_Node000004" class="edge">
<title>Node3&#45;&gt;Node4</title>
<g id="a_edge3_Node000003_Node000004"><a xlink:title=" ">
<path fill="none" stroke="#63b8ff" d="M691,-61.62C695.91,-59.38 701.36,-57.27 706.62,-56 1027.35,21.57 1123.89,-63.74 1453.32,-20.21"/>
<polygon fill="#63b8ff" stroke="#63b8ff" points="1453.7,-23.69 1463.14,-18.88 1452.76,-16.76 1453.7,-23.69"/>
</a>
</g>
</g>
<!-- Node5 -->
<g id="Node000005" class="node">
<title>Node5</title>
<g id="a_Node000005"><a xlink:title=" ">
<polygon fill="#e0e0e0" stroke="#999999" points="103.62,-20 63.62,-20 63.62,0 103.62,0 103.62,-20"/>
<text xml:space="preserve" text-anchor="middle" x="83.62" y="-6.5" font-family="Helvetica,sans-Serif" font-size="10.00">string</text>
</a>
</g>
</g>
<!-- Node3&#45;&gt;Node5 -->
<g id="edge4_Node000003_Node000005" class="edge">
<title>Node3&#45;&gt;Node5</title>
<g id="a_edge4_Node000003_Node000005"><a xlink:title=" ">
<path fill="none" stroke="#63b8ff" d="M649.03,-70.6C571.61,-68.97 326.04,-60.86 115.36,-20.15"/>
<polygon fill="#63b8ff" stroke="#63b8ff" points="116.06,-16.72 105.57,-18.23 114.7,-23.59 116.06,-16.72"/>
</a>
</g>
</g>
<!-- Node6 -->
<g id="Node000006" class="node">
<title>Node6</title>
<g id="a_Node000006"><a xlink:title=" ">
<polygon fill="#e0e0e0" stroke="#999999" points="165.12,-20 122.12,-20 122.12,0 165.12,0 165.12,-20"/>
<text xml:space="preserve" text-anchor="middle" x="143.62" y="-6.5" font-family="Helvetica,sans-Serif" font-size="10.00">vector</text>
</a>
</g>
</g>
<!-- Node3&#45;&gt;Node6 -->
<g id="edge5_Node000003_Node000006" class="edge">
<title>Node3&#45;&gt;Node6</title>
<g id="a_edge5_Node000003_Node000006"><a xlink:title=" ">
<path fill="none" stroke="#63b8ff" d="M649.19,-70.15C577.67,-67.32 362.6,-56.35 176.54,-20.26"/>
<polygon fill="#63b8ff" stroke="#63b8ff" points="177.43,-16.87 166.94,-18.37 176.08,-23.74 177.43,-16.87"/>
</a>
</g>
</g>
<!-- Node7 -->
<g id="Node000007" class="node">
<title>Node7</title>
<g id="a_Node000007"><a xlink:title=" ">
<polygon fill="#e0e0e0" stroke="#999999" points="234.25,-20 183,-20 183,0 234.25,0 234.25,-20"/>
<text xml:space="preserve" text-anchor="middle" x="208.62" y="-6.5" font-family="Helvetica,sans-Serif" font-size="10.00">memory</text>
</a>
</g>
</g>
<!-- Node3&#45;&gt;Node7 -->
<g id="edge6_Node000003_Node000007" class="edge">
<title>Node3&#45;&gt;Node7</title>
<g id="a_edge6_Node000003_Node000007"><a xlink:title=" ">
<path fill="none" stroke="#63b8ff" d="M649.14,-69.32C584.56,-64.63 404.19,-49.88 245.43,-20.32"/>
<polygon fill="#63b8ff" stroke="#63b8ff" points="246.49,-16.96 236.01,-18.54 245.19,-23.84 246.49,-16.96"/>
</a>
</g>
</g>
<!-- Node8 -->
<g id="Node000008" class="node">
<title>Node8</title>
<g id="a_Node000008"><a xlink:title=" ">
<polygon fill="#e0e0e0" stroke="#999999" points="45.25,-20 0,-20 0,0 45.25,0 45.25,-20"/>
<text xml:space="preserve" text-anchor="middle" x="22.62" y="-6.5" font-family="Helvetica,sans-Serif" font-size="10.00">cstdint</text>
</a>
</g>
</g>
<!-- Node3&#45;&gt;Node8 -->
<g id="edge7_Node000003_Node000008" class="edge">
<title>Node3&#45;&gt;Node8</title>
<g id="a_edge7_Node000003_Node000008"><a xlink:title=" ">
<path fill="none" stroke="#63b8ff" d="M649.22,-70.67C566.93,-69.19 292.09,-61.43 56.75,-20.02"/>
<polygon fill="#63b8ff" stroke="#63b8ff" points="57.52,-16.6 47.06,-18.29 56.29,-23.49 57.52,-16.6"/>
</a>
</g>
</g>
<!-- Node9 -->
<g id="Node000009" class="node">
<title>Node9</title>
<g id="a_Node000009"><a xlink:title=" ">
<polygon fill="#e0e0e0" stroke="#999999" points="1928.38,-20 1832.88,-20 1832.88,0 1928.38,0 1928.38,-20"/>
<text xml:space="preserve" text-anchor="middle" x="1880.62" y="-6.5" font-family="Helvetica,sans-Serif" font-size="10.00">mr&#45;math/math.hpp</text>
</a>
</g>
</g>
<!-- Node3&#45;&gt;Node9 -->
<g id="edge8_Node000003_Node000009" class="edge">
<title>Node3&#45;&gt;Node9</title>
<g id="a_edge8_Node000003_Node000009"><a xlink:title=" ">
<path fill="none" stroke="#63b8ff" d="M690.99,-61.59C695.91,-59.35 701.36,-57.25 706.62,-56 761.25,-43.07 1590.2,-19.1 1821.24,-12.64"/>
<polygon fill="#63b8ff" stroke="#63b8ff" points="1821.02,-16.15 1830.91,-12.37 1820.82,-9.15 1821.02,-16.15"/>
</a>
</g>
</g>
<!-- Node10 -->
<g id="Node000010" class="node">
<title>Node10</title>
<g id="a_Node000010"><a xlink:title=" ">
<polygon fill="#e0e0e0" stroke="#999999" points="365.38,-20 251.88,-20 251.88,0 365.38,0 365.38,-20"/>
<text xml:space="preserve" text-anchor="middle" x="308.62" y="-6.5" font-family="Helvetica,sans-Serif" font-size="10.00">glm/detail/qualifier.hpp</text>
</a>
</g>
</g>
<!-- Node3&#45;&gt;Node10 -->
<g id="edge9_Node000003_Node000010" class="edge">
<title>Node3&#45;&gt;Node10</title>
<g id="a_edge9_Node000003_Node000010"><a xlink:title=" ">
<path fill="none" stroke="#63b8ff" d="M649.11,-66.97C594.15,-57.94 459.46,-35.79 376.91,-22.22"/>
<polygon fill="#63b8ff" stroke="#63b8ff" points="377.55,-18.78 367.11,-20.61 376.41,-25.69 377.55,-18.78"/>
</a>
</g>
</g>
<!-- Node11 -->
<g id="Node000011" class="node">
<title>Node11</title>
<g id="a_Node000011"><a xlink:title=" ">
<polygon fill="#e0e0e0" stroke="#999999" points="520,-20 383.25,-20 383.25,0 520,0 520,-20"/>
<text xml:space="preserve" text-anchor="middle" x="451.62" y="-6.5" font-family="Helvetica,sans-Serif" font-size="10.00">glm/ext/matrix_float4x4.hpp</text>
</a>
</g>
</g>
<!-- Node3&#45;&gt;Node11 -->
<g id="edge10_Node000003_Node000011" class="edge">
<title>Node3&#45;&gt;Node11</title>
<g id="a_edge10_Node000003_Node000011"><a xlink:title=" ">
<path fill="none" stroke="#63b8ff" d="M649.02,-64.35C612.52,-54.48 543.39,-35.8 497.41,-23.37"/>
<polygon fill="#63b8ff" stroke="#63b8ff" points="498.57,-20.06 488,-20.83 496.74,-26.82 498.57,-20.06"/>
</a>
</g>
</g>
<!-- Node12 -->
<g id="Node000012" class="node">
<title>Node12</title>
<g id="a_Node000012"><a xlink:title=" ">
<polygon fill="#e0e0e0" stroke="#999999" points="664.75,-20 538.5,-20 538.5,0 664.75,0 664.75,-20"/>
<text xml:space="preserve" text-anchor="middle" x="601.62" y="-6.5" font-family="Helvetica,sans-Serif" font-size="10.00">glm/ext/vector_float2.hpp</text>
</a>
</g>
</g>
<!-- Node3&#45;&gt;Node12 -->
<g id="edge11_Node000003_Node000012" class="edge">
<title>Node3&#45;&gt;Node12</title>
<g id="a_edge11_Node000003_Node000012"><a xlink:title=" ">
<path fill="none" stroke="#63b8ff" d="M662.38,-61.62C651.43,-52.5 634.56,-38.45 621.37,-27.46"/>
<polygon fill="#63b8ff" stroke="#63b8ff" points="623.65,-24.79 613.72,-21.08 619.16,-30.17 623.65,-24.79"/>
</a>
</g>
</g>
<!-- Node13 -->
<g id="Node000013" class="node">
<title>Node13</title>
<g id="a_Node000013"><a xlink:title=" ">
<polygon fill="#e0e0e0" stroke="#999999" points="808.75,-20 682.5,-20 682.5,0 808.75,0 808.75,-20"/>
<text xml:space="preserve" text-anchor="middle" x="745.62" y="-6.5" font-family="Helvetica,sans-Serif" font-size="10.00">glm/ext/vector_float3.hpp</text>
</a>
</g>
</g>
<!-- Node3&#45;&gt;Node13 -->
<g id="edge12_Node000003_Node000013" class="edge">
<title>Node3&#45;&gt;Node13</title>
<g id="a_edge12_Node000003_Node000013"><a xlink:title=" ">
<path fill="none" stroke="#63b8ff" d="M684.88,-61.62C695.82,-52.5 712.69,-38.45 725.88,-27.46"/>
<polygon fill="#63b8ff" stroke="#63b8ff" points="728.09,-30.17 733.53,-21.08 723.6,-24.79 728.09,-30.17"/>
</a>
</g>
</g>
<!-- Node14 -->
<g id="Node000014" class="node">
<title>Node14</title>
<g id="a_Node000014"><a xlink:title=" ">
<polygon fill="#e0e0e0" stroke="#999999" points="952.75,-20 826.5,-20 826.5,0 952.75,0 952.75,-20"/>
<text xml:space="preserve" text-anchor="middle" x="889.62" y="-6.5" font-family="Helvetica,sans-Serif" font-size="10.00">glm/ext/vector_float4.hpp</text>
</a>
</g>
</g>
<!-- Node3&#45;&gt;Node14 -->
<g id="edge13_Node000003_Node000014" class="edge">
<title>Node3&#45;&gt;Node14</title>
<g id="a_edge13_Node000003_Node000014"><a xlink:title=" ">
<path fill="none" stroke="#63b8ff" d="M692.92,-61.51C697.36,-59.53 702.11,-57.57 706.62,-56 746.96,-42.01 793.73,-30.59 829.89,-22.75"/>
<polygon fill="#63b8ff" stroke="#63b8ff" points="830.22,-26.26 839.27,-20.75 828.76,-19.41 830.22,-26.26"/>
</a>
</g>
</g>
<!-- Node15 -->
<g id="Node000015" class="node">
<title>Node15</title>
<g id="a_Node000015"><a xlink:title=" ">
<polygon fill="#e0e0e0" stroke="#999999" points="1040.25,-20 971,-20 971,0 1040.25,0 1040.25,-20"/>
<text xml:space="preserve" text-anchor="middle" x="1005.62" y="-6.5" font-family="Helvetica,sans-Serif" font-size="10.00">glm/glm.hpp</text>
</a>
</g>
</g>
<!-- Node3&#45;&gt;Node15 -->
<g id="edge14_Node000003_Node000015" class="edge">
<title>Node3&#45;&gt;Node15</title>
<g id="a_edge14_Node000003_Node000015"><a xlink:title=" ">
<path fill="none" stroke="#63b8ff" d="M691.77,-61.63C696.5,-59.5 701.67,-57.44 706.62,-56 813.08,-24.99 846.74,-38.56 959.44,-20.24"/>
<polygon fill="#63b8ff" stroke="#63b8ff" points="959.82,-23.73 969.1,-18.62 958.66,-16.82 959.82,-23.73"/>
</a>
</g>
</g>
<!-- Node16 -->
<g id="Node000016" class="node">
<title>Node16</title>
<g id="a_Node000016"><a xlink:title=" ">
<polygon fill="#e0e0e0" stroke="#999999" points="1163.25,-20 1058,-20 1058,0 1163.25,0 1163.25,-20"/>
<text xml:space="preserve" text-anchor="middle" x="1110.62" y="-6.5" font-family="Helvetica,sans-Serif" font-size="10.00">glm/gtc/type_ptr.hpp</text>
</a>
</g>
</g>
<!-- Node3&#45;&gt;Node16 -->
<g id="edge15_Node000003_Node000016" class="edge">
<title>Node3&#45;&gt;Node16</title>
<g id="a_edge15_Node000003_Node000016"><a xlink:title=" ">
<path fill="none" stroke="#63b8ff" d="M691.74,-61.51C696.47,-59.38 701.65,-57.35 706.62,-56 851.07,-16.71 895.48,-38.13 1046.67,-20.29"/>
<polygon fill="#63b8ff" stroke="#63b8ff" points="1046.74,-23.81 1056.24,-19.12 1045.89,-16.86 1046.74,-23.81"/>
</a>
</g>
</g>
<!-- Node17 -->
<g id="Node000017" class="node">
<title>Node17</title>
<g id="a_Node000017"><a xlink:title=" ">
<polygon fill="#e0e0e0" stroke="#999999" points="1279.88,-20 1181.38,-20 1181.38,0 1279.88,0 1279.88,-20"/>
<text xml:space="preserve" text-anchor="middle" x="1230.62" y="-6.5" font-family="Helvetica,sans-Serif" font-size="10.00">slang&#45;com&#45;helper.h</text>
</a>
</g>
</g>
<!-- Node3&#45;&gt;Node17 -->
<g id="edge16_Node000003_Node000017" class="edge">
<title>Node3&#45;&gt;Node17</title>
<g id="a_edge16_Node000003_Node000017"><a xlink:title=" ">
<path fill="none" stroke="#63b8ff" d="M691.36,-61.57C696.19,-59.39 701.51,-57.32 706.62,-56 904.26,-5.14 964.18,-42.58 1169.81,-20.22"/>
<polygon fill="#63b8ff" stroke="#63b8ff" points="1169.94,-23.73 1179.48,-19.13 1169.15,-16.77 1169.94,-23.73"/>
</a>
</g>
</g>
<!-- Node18 -->
<g id="Node000018" class="node">
<title>Node18</title>
<g id="a_Node000018"><a xlink:title=" ">
<polygon fill="#e0e0e0" stroke="#999999" points="1381.38,-20 1297.88,-20 1297.88,0 1381.38,0 1381.38,-20"/>
<text xml:space="preserve" text-anchor="middle" x="1339.62" y="-6.5" font-family="Helvetica,sans-Serif" font-size="10.00">slang&#45;com&#45;ptr.h</text>
</a>
</g>
</g>
<!-- Node3&#45;&gt;Node18 -->
<g id="edge17_Node000003_Node000018" class="edge">
<title>Node3&#45;&gt;Node18</title>
<g id="a_edge17_Node000003_Node000018"><a xlink:title=" ">
<path fill="none" stroke="#63b8ff" d="M691.35,-61.52C696.18,-59.33 701.5,-57.28 706.62,-56 954.54,5.77 1029.16,-48.97 1286.19,-20.13"/>
<polygon fill="#63b8ff" stroke="#63b8ff" points="1286.34,-23.63 1295.88,-19.01 1285.54,-16.68 1286.34,-23.63"/>
</a>
</g>
</g>
<!-- Node19 -->
<g id="Node000019" class="node">
<title>Node19</title>
<g id="a_Node000019"><a xlink:title=" ">
<polygon fill="#e0e0e0" stroke="#999999" points="1447.38,-20 1399.88,-20 1399.88,0 1447.38,0 1447.38,-20"/>
<text xml:space="preserve" text-anchor="middle" x="1423.62" y="-6.5" font-family="Helvetica,sans-Serif" font-size="10.00">slang.h</text>
</a>
</g>
</g>
<!-- Node3&#45;&gt;Node19 -->
<g id="edge18_Node000003_Node000019" class="edge">
<title>Node3&#45;&gt;Node19</title>
<g id="a_edge18_Node000003_Node000019"><a xlink:title=" ">
<path fill="none" stroke="#63b8ff" d="M691,-61.64C695.92,-59.4 701.37,-57.28 706.62,-56 998.74,15.36 1087.89,-66.28 1388.37,-19.96"/>
<polygon fill="#63b8ff" stroke="#63b8ff" points="1388.78,-23.44 1398.11,-18.42 1387.69,-16.53 1388.78,-23.44"/>
</a>
</g>
</g>
<!-- Node20&#45;&gt;Node3 -->
<g id="edge20_Node000020_Node000003" class="edge">
<title>Node20&#45;&gt;Node3</title>
<g id="a_edge20_Node000020_Node000003"><a xlink:title=" ">
<path fill="none" stroke="#63b8ff" d="M673.62,-123.62C673.62,-115.56 673.62,-103.65 673.62,-93.41"/>
<polygon fill="#63b8ff" stroke="#63b8ff" points="677.13,-93.63 673.63,-83.63 670.13,-93.63 677.13,-93.63"/>
</a>
</g>
</g>
<!-- Node21&#45;&gt;Node3 -->
<g id="edge22_Node000021_Node000003" class="edge">
<title>Node21&#45;&gt;Node3</title>
<g id="a_edge22_Node000021_Node000003"><a xlink:title=" ">
<path fill="none" stroke="#63b8ff" d="M762.69,-179.51C746.48,-160.12 709.35,-115.72 688.51,-90.8"/>
<polygon fill="#63b8ff" stroke="#63b8ff" points="691.47,-88.89 682.37,-83.46 686.1,-93.38 691.47,-88.89"/>
</a>
</g>
</g>
<!-- Node21&#45;&gt;Node20 -->
<g id="edge23_Node000021_Node000020" class="edge">
<title>Node21&#45;&gt;Node20</title>
<g id="a_edge23_Node000021_Node000020"><a xlink:title=" ">
<path fill="none" stroke="#63b8ff" d="M753.73,-179.59C739.08,-171.44 717.6,-159.48 700.58,-150"/>
<polygon fill="#63b8ff" stroke="#63b8ff" points="702.42,-147.02 691.98,-145.22 699.01,-153.14 702.42,-147.02"/>
</a>
</g>
</g>
<!-- Node22&#45;&gt;Node20 -->
<g id="edge25_Node000022_Node000020" class="edge">
<title>Node22&#45;&gt;Node20</title>
<g id="a_edge25_Node000022_Node000020"><a xlink:title=" ">
<path fill="none" stroke="#63b8ff" d="M576.18,-179.59C594.51,-171.21 621.61,-158.8 642.58,-149.21"/>
<polygon fill="#63b8ff" stroke="#63b8ff" points="643.9,-152.45 651.53,-145.11 640.98,-146.09 643.9,-152.45"/>
</a>
</g>
</g>
<!-- Node23&#45;&gt;Node20 -->
<g id="edge27_Node000023_Node000020" class="edge">
<title>Node23&#45;&gt;Node20</title>
<g id="a_edge27_Node000023_Node000020"><a xlink:title=" ">
<path fill="none" stroke="#63b8ff" d="M647.2,-179.59C651.37,-172.55 657.23,-162.67 662.37,-154"/>
<polygon fill="#63b8ff" stroke="#63b8ff" points="665.26,-155.99 667.34,-145.6 659.23,-152.42 665.26,-155.99"/>
</a>
</g>
</g>
<!-- Node24&#45;&gt;Node8 -->
<g id="edge29_Node000024_Node000008" class="edge">
<title>Node24&#45;&gt;Node8</title>
<g id="a_edge29_Node000024_Node000008"><a xlink:title=" ">
<path fill="none" stroke="#63b8ff" d="M317.78,-123.53C260.73,-101.78 120.3,-48.24 55.89,-23.68"/>
<polygon fill="#63b8ff" stroke="#63b8ff" points="57.51,-20.55 46.92,-20.26 55.02,-27.09 57.51,-20.55"/>
</a>
</g>
</g>
<!-- Node25&#45;&gt;Node3 -->
<g id="edge31_Node000025_Node000003" class="edge">
<title>Node25&#45;&gt;Node3</title>
<g id="a_edge31_Node000025_Node000003"><a xlink:title=" ">
<path fill="none" stroke="#63b8ff" d="M1301.16,-132.35C1199.43,-129.56 822.05,-117.42 706.62,-88 705.02,-87.59 703.4,-87.11 701.79,-86.57"/>
<polygon fill="#63b8ff" stroke="#63b8ff" points="703.35,-83.43 692.77,-83 700.78,-89.94 703.35,-83.43"/>
</a>
</g>
</g>
<!-- Node25&#45;&gt;Node9 -->
<g id="edge48_Node000025_Node000009" class="edge">
<title>Node25&#45;&gt;Node9</title>
<g id="a_edge48_Node000025_Node000009"><a xlink:title=" ">
<path fill="none" stroke="#63b8ff" d="M1352.13,-132.58C1488.1,-130.24 2122.49,-117.71 2150.62,-88 2213.83,-21.25 2037.39,-11.06 1940.09,-10.32"/>
<polygon fill="#63b8ff" stroke="#63b8ff" points="1940.16,-6.82 1930.15,-10.28 1940.13,-13.82 1940.16,-6.82"/>
</a>
</g>
</g>
<!-- Node26 -->
<g id="Node000026" class="node">
<title>Node26</title>
<g id="a_Node000026"><a xlink:title=" ">
<polygon fill="#e0e0e0" stroke="#999999" points="2241.12,-82 2198.12,-82 2198.12,-62 2241.12,-62 2241.12,-82"/>
<text xml:space="preserve" text-anchor="middle" x="2219.62" y="-68.5" font-family="Helvetica,sans-Serif" font-size="10.00">cmath</text>
</a>
</g>
</g>
<!-- Node25&#45;&gt;Node26 -->
<g id="edge32_Node000025_Node000026" class="edge">
<title>Node25&#45;&gt;Node26</title>
<g id="a_edge32_Node000025_Node000026"><a xlink:title=" ">
<path fill="none" stroke="#63b8ff" d="M1352,-132.83C1476.04,-131.84 2019.28,-125.38 2183.62,-88 2185.67,-87.54 2187.74,-86.97 2189.81,-86.32"/>
<polygon fill="#63b8ff" stroke="#63b8ff" points="2191,-89.61 2199.17,-82.87 2188.58,-83.04 2191,-89.61"/>
</a>
</g>
</g>
<!-- Node27 -->
<g id="Node000027" class="node">
<title>Node27</title>
<g id="a_Node000027"><a xlink:title=" ">
<polygon fill="#e0e0e0" stroke="#999999" points="773.62,-82 715.62,-82 715.62,-62 773.62,-62 773.62,-82"/>
<text xml:space="preserve" text-anchor="middle" x="744.62" y="-68.5" font-family="Helvetica,sans-Serif" font-size="10.00">execution</text>
</a>
</g>
</g>
<!-- Node25&#45;&gt;Node27 -->
<g id="edge33_Node000025_Node000027" class="edge">
<title>Node25&#45;&gt;Node27</title>
<g id="a_edge33_Node000025_Node000027"><a xlink:title=" ">
<path fill="none" stroke="#63b8ff" d="M1301,-133.52C1222.37,-134.55 978.04,-133.6 782.62,-88 780.45,-87.49 778.23,-86.88 776.02,-86.2"/>
<polygon fill="#63b8ff" stroke="#63b8ff" points="777.2,-82.91 766.61,-82.88 774.87,-89.51 777.2,-82.91"/>
</a>
</g>
</g>
<!-- Node28 -->
<g id="Node000028" class="node">
<title>Node28</title>
<g id="a_Node000028"><a xlink:title=" ">
<polygon fill="#e0e0e0" stroke="#999999" points="847.5,-82 791.75,-82 791.75,-62 847.5,-62 847.5,-82"/>
<text xml:space="preserve" text-anchor="middle" x="819.62" y="-68.5" font-family="Helvetica,sans-Serif" font-size="10.00">expected</text>
</a>
</g>
</g>
<!-- Node25&#45;&gt;Node28 -->
<g id="edge34_Node000025_Node000028" class="edge">
<title>Node25&#45;&gt;Node28</title>
<g id="a_edge34_Node000025_Node000028"><a xlink:title=" ">
<path fill="none" stroke="#63b8ff" d="M1300.97,-133.13C1229.5,-132.93 1022.42,-128.63 856.62,-88 854.64,-87.51 852.62,-86.94 850.61,-86.31"/>
<polygon fill="#63b8ff" stroke="#63b8ff" points="852.04,-83.1 841.44,-83.01 849.66,-89.69 852.04,-83.1"/>
</a>
</g>
</g>
<!-- Node29 -->
<g id="Node000029" class="node">
<title>Node29</title>
<g id="a_Node000029"><a xlink:title=" ">
<polygon fill="#e0e0e0" stroke="#999999" points="923.62,-82 865.62,-82 865.62,-62 923.62,-62 923.62,-82"/>
<text xml:space="preserve" text-anchor="middle" x="894.62" y="-68.5" font-family="Helvetica,sans-Serif" font-size="10.00">functional</text>
</a>
</g>
</g>
<!-- Node25&#45;&gt;Node29 -->
<g id="edge35_Node000025_Node000029" class="edge">
<title>Node25&#45;&gt;Node29</title>
<g id="a_edge35_Node000025_Node000029"><a xlink:title=" ">
<path fill="none" stroke="#63b8ff" d="M1300.94,-132.3C1237.63,-130.09 1069.35,-121.3 933.62,-88 931.46,-87.47 929.25,-86.85 927.04,-86.17"/>
<polygon fill="#63b8ff" stroke="#63b8ff" points="928.2,-82.87 917.61,-82.9 925.91,-89.48 928.2,-82.87"/>
</a>
</g>
</g>
<!-- Node30 -->
<g id="Node000030" class="node">
<title>Node30</title>
<g id="a_Node000030"><a xlink:title=" ">
<polygon fill="#e0e0e0" stroke="#999999" points="979.12,-82 942.12,-82 942.12,-62 979.12,-62 979.12,-82"/>
<text xml:space="preserve" text-anchor="middle" x="960.62" y="-68.5" font-family="Helvetica,sans-Serif" font-size="10.00">tuple</text>
</a>
</g>
</g>
<!-- Node25&#45;&gt;Node30 -->
<g id="edge36_Node000025_Node000030" class="edge">
<title>Node25&#45;&gt;Node30</title>
<g id="a_edge36_Node000025_Node000030"><a xlink:title=" ">
<path fill="none" stroke="#63b8ff" d="M1301.24,-132.84C1243.85,-131.78 1100.36,-125.3 987.62,-88 986.97,-87.78 986.32,-87.55 985.66,-87.31"/>
<polygon fill="#63b8ff" stroke="#63b8ff" points="987.21,-84.17 976.67,-83.1 984.25,-90.51 987.21,-84.17"/>
</a>
</g>
</g>
<!-- Node31 -->
<g id="Node000031" class="node">
<title>Node31</title>
<g id="a_Node000031"><a xlink:title=" ">
<polygon fill="#e0e0e0" stroke="#999999" points="1036.25,-82 997,-82 997,-62 1036.25,-62 1036.25,-82"/>
<text xml:space="preserve" text-anchor="middle" x="1016.62" y="-68.5" font-family="Helvetica,sans-Serif" font-size="10.00">utility</text>
</a>
</g>
</g>
<!-- Node25&#45;&gt;Node31 -->
<g id="edge37_Node000025_Node000031" class="edge">
<title>Node25&#45;&gt;Node31</title>
<g id="a_edge37_Node000025_Node000031"><a xlink:title=" ">
<path fill="none" stroke="#63b8ff" d="M1301.18,-131.63C1251.1,-128.36 1136.67,-117.97 1045.62,-88 1044.66,-87.68 1043.69,-87.33 1042.71,-86.96"/>
<polygon fill="#63b8ff" stroke="#63b8ff" points="1044.42,-83.9 1033.87,-82.98 1041.54,-90.28 1044.42,-83.9"/>
</a>
</g>
</g>
<!-- Node32 -->
<g id="Node000032" class="node">
<title>Node32</title>
<g id="a_Node000032"><a xlink:title=" ">
<polygon fill="#e0e0e0" stroke="#999999" points="1140.88,-82 1054.38,-82 1054.38,-62 1140.88,-62 1140.88,-82"/>
<text xml:space="preserve" text-anchor="middle" x="1097.62" y="-68.5" font-family="Helvetica,sans-Serif" font-size="10.00">fastgltf/core.hpp</text>
</a>
</g>
</g>
<!-- Node25&#45;&gt;Node32 -->
<g id="edge38_Node000025_Node000032" class="edge">
<title>Node25&#45;&gt;Node32</title>
<g id="a_edge38_Node000025_Node000032"><a xlink:title=" ">
<path fill="none" stroke="#63b8ff" d="M1300.92,-126.65C1266.59,-118.11 1203.92,-102.35 1150.62,-88 1147.7,-87.21 1144.68,-86.39 1141.64,-85.55"/>
<polygon fill="#63b8ff" stroke="#63b8ff" points="1142.7,-82.21 1132.13,-82.9 1140.82,-88.95 1142.7,-82.21"/>
</a>
</g>
</g>
<!-- Node33 -->
<g id="Node000033" class="node">
<title>Node33</title>
<g id="a_Node000033"><a xlink:title=" ">
<polygon fill="#e0e0e0" stroke="#999999" points="1263.88,-88 1159.38,-88 1159.38,-56 1263.88,-56 1263.88,-88"/>
<text xml:space="preserve" text-anchor="start" x="1167.38" y="-74.5" font-family="Helvetica,sans-Serif" font-size="10.00">fastgltf/glm_element</text>
<text xml:space="preserve" text-anchor="middle" x="1211.62" y="-62.5" font-family="Helvetica,sans-Serif" font-size="10.00">_traits.hpp</text>
</a>
</g>
</g>
<!-- Node25&#45;&gt;Node33 -->
<g id="edge39_Node000025_Node000033" class="edge">
<title>Node25&#45;&gt;Node33</title>
<g id="a_edge39_Node000025_Node000033"><a xlink:title=" ">
<path fill="none" stroke="#63b8ff" d="M1308.66,-123.62C1293.34,-115.63 1270.78,-103.86 1251.26,-93.68"/>
<polygon fill="#63b8ff" stroke="#63b8ff" points="1252.92,-90.6 1242.43,-89.07 1249.68,-96.8 1252.92,-90.6"/>
</a>
</g>
</g>
<!-- Node34 -->
<g id="Node000034" class="node">
<title>Node34</title>
<g id="a_Node000034"><a xlink:title=" ">
<polygon fill="#e0e0e0" stroke="#999999" points="1371.38,-82 1281.88,-82 1281.88,-62 1371.38,-62 1371.38,-82"/>
<text xml:space="preserve" text-anchor="middle" x="1326.62" y="-68.5" font-family="Helvetica,sans-Serif" font-size="10.00">fastgltf/math.hpp</text>
</a>
</g>
</g>
<!-- Node25&#45;&gt;Node34 -->
<g id="edge40_Node000025_Node000034" class="edge">
<title>Node25&#45;&gt;Node34</title>
<g id="a_edge40_Node000025_Node000034"><a xlink:title=" ">
<path fill="none" stroke="#63b8ff" d="M1326.62,-123.62C1326.62,-115.56 1326.62,-103.65 1326.62,-93.41"/>
<polygon fill="#63b8ff" stroke="#63b8ff" points="1330.13,-93.63 1326.63,-83.63 1323.13,-93.63 1330.13,-93.63"/>
</a>
</g>
</g>
<!-- Node35 -->
<g id="Node000035" class="node">
<title>Node35</title>
<g id="a_Node000035"><a xlink:title=" ">
<polygon fill="#e0e0e0" stroke="#999999" points="1478,-82 1389.25,-82 1389.25,-62 1478,-62 1478,-82"/>
<text xml:space="preserve" text-anchor="middle" x="1433.62" y="-68.5" font-family="Helvetica,sans-Serif" font-size="10.00">fastgltf/tools.hpp</text>
</a>
</g>
</g>
<!-- Node25&#45;&gt;Node35 -->
<g id="edge41_Node000025_Node000035" class="edge">
<title>Node25&#45;&gt;Node35</title>
<g id="a_edge41_Node000025_Node000035"><a xlink:title=" ">
<path fill="none" stroke="#63b8ff" d="M1343.34,-123.62C1360.38,-114.07 1387.07,-99.11 1407.02,-87.92"/>
<polygon fill="#63b8ff" stroke="#63b8ff" points="1408.69,-90.99 1415.7,-83.05 1405.27,-84.89 1408.69,-90.99"/>
</a>
</g>
</g>
<!-- Node36 -->
<g id="Node000036" class="node">
<title>Node36</title>
<g id="a_Node000036"><a xlink:title=" ">
<polygon fill="#e0e0e0" stroke="#999999" points="1587.5,-82 1495.75,-82 1495.75,-62 1587.5,-62 1587.5,-82"/>
<text xml:space="preserve" text-anchor="middle" x="1541.62" y="-68.5" font-family="Helvetica,sans-Serif" font-size="10.00">fastgltf/types.hpp</text>
</a>
</g>
</g>
<!-- Node25&#45;&gt;Node36 -->
<g id="edge42_Node000025_Node000036" class="edge">
<title>Node25&#45;&gt;Node36</title>
<g id="a_edge42_Node000025_Node000036"><a xlink:title=" ">
<path fill="none" stroke="#63b8ff" d="M1352.13,-125.88C1387.74,-115.94 1452.9,-97.76 1496.74,-85.53"/>
<polygon fill="#63b8ff" stroke="#63b8ff" points="1497.52,-88.94 1506.21,-82.88 1495.64,-82.2 1497.52,-88.94"/>
</a>
</g>
</g>
<!-- Node37 -->
<g id="Node000037" class="node">
<title>Node37</title>
<g id="a_Node000037"><a xlink:title=" ">
<polygon fill="#e0e0e0" stroke="#999999" points="1693.62,-82 1605.62,-82 1605.62,-62 1693.62,-62 1693.62,-82"/>
<text xml:space="preserve" text-anchor="middle" x="1649.62" y="-68.5" font-family="Helvetica,sans-Serif" font-size="10.00">meshoptimizer.h</text>
</a>
</g>
</g>
<!-- Node25&#45;&gt;Node37 -->
<g id="edge43_Node000025_Node000037" class="edge">
<title>Node25&#45;&gt;Node37</title>
<g id="a_edge43_Node000025_Node000037"><a xlink:title=" ">
<path fill="none" stroke="#63b8ff" d="M1352.12,-129.71C1400.23,-123.29 1507.59,-107.95 1596.62,-88 1600.17,-87.21 1603.83,-86.32 1607.5,-85.38"/>
<polygon fill="#63b8ff" stroke="#63b8ff" points="1608.17,-88.82 1616.92,-82.85 1606.36,-82.06 1608.17,-88.82"/>
</a>
</g>
</g>
<!-- Node38 -->
<g id="Node000038" class="node">
<title>Node38</title>
<g id="a_Node000038"><a xlink:title=" ">
<polygon fill="#e0e0e0" stroke="#999999" points="1781.25,-82 1712,-82 1712,-62 1781.25,-62 1781.25,-82"/>
<text xml:space="preserve" text-anchor="middle" x="1746.62" y="-68.5" font-family="Helvetica,sans-Serif" font-size="10.00">stb_image.h</text>
</a>
</g>
</g>
<!-- Node25&#45;&gt;Node38 -->
<g id="edge44_Node000025_Node000038" class="edge">
<title>Node25&#45;&gt;Node38</title>
<g id="a_edge44_Node000025_Node000038"><a xlink:title=" ">
<path fill="none" stroke="#63b8ff" d="M1352.02,-131.8C1413.1,-128.51 1572.82,-117.55 1702.62,-88 1705.38,-87.37 1708.2,-86.64 1711.03,-85.83"/>
<polygon fill="#63b8ff" stroke="#63b8ff" points="1711.81,-89.26 1720.31,-82.94 1709.72,-82.57 1711.81,-89.26"/>
</a>
</g>
</g>
<!-- Node39 -->
<g id="Node000039" class="node">
<title>Node39</title>
<g id="a_Node000039"><a xlink:title=" ">
<polygon fill="#e0e0e0" stroke="#999999" points="1926.12,-82 1799.12,-82 1799.12,-62 1926.12,-62 1926.12,-82"/>
<text xml:space="preserve" text-anchor="middle" x="1862.62" y="-68.5" font-family="Helvetica,sans-Serif" font-size="10.00">mr&#45;manager/manager.hpp</text>
</a>
</g>
</g>
<!-- Node25&#45;&gt;Node39 -->
<g id="edge45_Node000025_Node000039" class="edge">
<title>Node25&#45;&gt;Node39</title>
<g id="a_edge45_Node000025_Node000039"><a xlink:title=" ">
<path fill="none" stroke="#63b8ff" d="M1352.15,-131.5C1422.39,-127.17 1624.4,-113.3 1790.62,-88 1796.93,-87.04 1803.52,-85.88 1810.04,-84.64"/>
<polygon fill="#63b8ff" stroke="#63b8ff" points="1810.27,-88.17 1819.4,-82.79 1808.91,-81.3 1810.27,-88.17"/>
</a>
</g>
</g>
<!-- Node40 -->
<g id="Node000040" class="node">
<title>Node40</title>
<g id="a_Node000040"><a xlink:title=" ">
<polygon fill="#e0e0e0" stroke="#999999" points="2041.12,-82 1944.12,-82 1944.12,-62 2041.12,-62 2041.12,-82"/>
<text xml:space="preserve" text-anchor="middle" x="1992.62" y="-68.5" font-family="Helvetica,sans-Serif" font-size="10.00">mr&#45;utils/assert.hpp</text>
</a>
</g>
</g>
<!-- Node25&#45;&gt;Node40 -->
<g id="edge46_Node000025_Node000040" class="edge">
<title>Node25&#45;&gt;Node40</title>
<g id="a_edge46_Node000025_Node000040"><a xlink:title=" ">
<path fill="none" stroke="#63b8ff" d="M1352.35,-132.78C1436.63,-131.71 1711.85,-125.39 1935.62,-88 1940.28,-87.22 1945.11,-86.24 1949.9,-85.15"/>
<polygon fill="#63b8ff" stroke="#63b8ff" points="1950.54,-88.59 1959.42,-82.81 1948.88,-81.79 1950.54,-88.59"/>
</a>
</g>
</g>
<!-- Node41 -->
<g id="Node000041" class="node">
<title>Node41</title>
<g id="a_Node000041"><a xlink:title=" ">
<polygon fill="#e0e0e0" stroke="#999999" points="2142,-82 2059.25,-82 2059.25,-62 2142,-62 2142,-82"/>
<text xml:space="preserve" text-anchor="middle" x="2100.62" y="-68.5" font-family="Helvetica,sans-Serif" font-size="10.00">mr&#45;utils/log.hpp</text>
</a>
</g>
</g>
<!-- Node25&#45;&gt;Node41 -->
<g id="edge47_Node000025_Node000041" class="edge">
<title>Node25&#45;&gt;Node41</title>
<g id="a_edge47_Node000025_Node000041"><a xlink:title=" ">
<path fill="none" stroke="#63b8ff" d="M1352.2,-133.52C1446.14,-134.97 1780.67,-136.22 2050.62,-88 2054.44,-87.32 2058.38,-86.44 2062.29,-85.46"/>
<polygon fill="#63b8ff" stroke="#63b8ff" points="2062.96,-88.91 2071.67,-82.88 2061.1,-82.16 2062.96,-88.91"/>
</a>
</g>
</g>
</g>
</svg>
