<?xml version="1.0" encoding="UTF-8" standalone="no"?>
<!DOCTYPE svg PUBLIC "-//W3C//DTD SVG 1.1//EN"
 "http://www.w3.org/Graphics/SVG/1.1/DTD/svg11.dtd">
<!-- Generated by graphviz version 13.1.1 (0)
 -->
<!-- Title: optimizer.hpp Pages: 1 -->
<svg width="333pt" height="140pt"
 viewBox="0.00 0.00 333.00 140.00" xmlns="http://www.w3.org/2000/svg" xmlns:xlink="http://www.w3.org/1999/xlink">

<svg id="main" version="1.1" xmlns="http://www.w3.org/2000/svg" xmlns:xlink="http://www.w3.org/1999/xlink" xml:space="preserve">

<style type="text/css"><![CDATA[
.node, .edge {opacity: 0.7;}
.node.selected, .edge.selected {opacity: 1;}
.edge:hover path { stroke: red; }
.edge:hover polygon { stroke: red; fill: red; }
]]></style>
<script type="application/ecmascript" xlink:href="svg.min.js"/>
<svg id="graph" class="graph">
<g id="graph0" class="graph" transform="scale(1 1) rotate(0) translate(4 136)">
<title>optimizer.hpp</title>
<!-- Node1 -->
<g id="Node000001" class="node">
<title>Node1</title>
<g id="a_Node000001"><a xlink:title="Public API for mesh optimization and LOD generation.">
<polygon fill="#999999" stroke="#666666" points="197.25,-132 122.75,-132 122.75,-112 197.25,-112 197.25,-132"/>
<text xml:space="preserve" text-anchor="middle" x="160" y="-118.5" font-family="Helvetica,sans-Serif" font-size="10.00">optimizer.hpp</text>
</a>
</g>
</g>
<!-- Node2 -->
<g id="Node000002" class="node">
<title>Node2</title>
<g id="a_Node000002"><a xlink:href="importer_8hpp.html" target="_top" xlink:title="High&#45;level import facade that wires loader and optimizer.">
<polygon fill="white" stroke="#666666" points="195,-76 125,-76 125,-56 195,-56 195,-76"/>
<text xml:space="preserve" text-anchor="middle" x="160" y="-62.5" font-family="Helvetica,sans-Serif" font-size="10.00">importer.hpp</text>
</a>
</g>
</g>
<!-- Node1&#45;&gt;Node2 -->
<g id="edge1_Node000001_Node000002" class="edge">
<title>Node1&#45;&gt;Node2</title>
<g id="a_edge1_Node000001_Node000002"><a xlink:title=" ">
<path fill="none" stroke="#63b8ff" d="M160,-100.13C160,-91.9 160,-82.85 160,-76.3"/>
<polygon fill="#63b8ff" stroke="#63b8ff" points="156.5,-100.08 160,-110.08 163.5,-100.08 156.5,-100.08"/>
</a>
</g>
</g>
<!-- Node3 -->
<g id="Node000003" class="node">
<title>Node3</title>
<g id="a_Node000003"><a xlink:href="assets_8cpp.html" target="_top" xlink:title="Inline helpers and constructors for runtime asset structures.">
<polygon fill="white" stroke="#666666" points="64,-20 0,-20 0,0 64,0 64,-20"/>
<text xml:space="preserve" text-anchor="middle" x="32" y="-6.5" font-family="Helvetica,sans-Serif" font-size="10.00">assets.cpp</text>
</a>
</g>
</g>
<!-- Node2&#45;&gt;Node3 -->
<g id="edge2_Node000002_Node000003" class="edge">
<title>Node2&#45;&gt;Node3</title>
<g id="a_edge2_Node000002_Node000003"><a xlink:title=" ">
<path fill="none" stroke="#63b8ff" d="M127.15,-51.14C104.36,-41.52 74.59,-28.97 54.47,-20.48"/>
<polygon fill="#63b8ff" stroke="#63b8ff" points="125.74,-54.34 136.31,-55.01 128.46,-47.89 125.74,-54.34"/>
</a>
</g>
</g>
<!-- Node4 -->
<g id="Node000004" class="node">
<title>Node4</title>
<g id="a_Node000004"><a xlink:href="compiler_8cpp.html" target="_top" xlink:title="Slang&#45;based shader compilation pipeline implementation.">
<polygon fill="white" stroke="#666666" points="153.75,-20 82.25,-20 82.25,0 153.75,0 153.75,-20"/>
<text xml:space="preserve" text-anchor="middle" x="118" y="-6.5" font-family="Helvetica,sans-Serif" font-size="10.00">compiler.cpp</text>
</a>
</g>
</g>
<!-- Node2&#45;&gt;Node4 -->
<g id="edge3_Node000002_Node000004" class="edge">
<title>Node2&#45;&gt;Node4</title>
<g id="a_edge3_Node000002_Node000004"><a xlink:title=" ">
<path fill="none" stroke="#63b8ff" d="M145.78,-46.72C138.87,-37.84 130.87,-27.55 125.23,-20.3"/>
<polygon fill="#63b8ff" stroke="#63b8ff" points="142.85,-48.65 151.75,-54.4 148.38,-44.36 142.85,-48.65"/>
</a>
</g>
</g>
<!-- Node5 -->
<g id="Node000005" class="node">
<title>Node5</title>
<g id="a_Node000005"><a xlink:href="loader_8cpp.html" target="_top" xlink:title="glTF loading and conversion into runtime asset structures.">
<polygon fill="white" stroke="#666666" points="232.5,-20 171.5,-20 171.5,0 232.5,0 232.5,-20"/>
<text xml:space="preserve" text-anchor="middle" x="202" y="-6.5" font-family="Helvetica,sans-Serif" font-size="10.00">loader.cpp</text>
</a>
</g>
</g>
<!-- Node2&#45;&gt;Node5 -->
<g id="edge4_Node000002_Node000005" class="edge">
<title>Node2&#45;&gt;Node5</title>
<g id="a_edge4_Node000002_Node000005"><a xlink:title=" ">
<path fill="none" stroke="#63b8ff" d="M174.22,-46.72C181.13,-37.84 189.13,-27.55 194.77,-20.3"/>
<polygon fill="#63b8ff" stroke="#63b8ff" points="171.62,-44.36 168.25,-54.4 177.15,-48.65 171.62,-44.36"/>
</a>
</g>
</g>
<!-- Node6 -->
<g id="Node000006" class="node">
<title>Node6</title>
<g id="a_Node000006"><a xlink:href="optimizer_8cpp.html" target="_top" xlink:title="Mesh optimization and multi&#45;LOD generation implementation.">
<polygon fill="white" stroke="#666666" points="325.25,-20 250.75,-20 250.75,0 325.25,0 325.25,-20"/>
<text xml:space="preserve" text-anchor="middle" x="288" y="-6.5" font-family="Helvetica,sans-Serif" font-size="10.00">optimizer.cpp</text>
</a>
</g>
</g>
<!-- Node2&#45;&gt;Node6 -->
<g id="edge5_Node000002_Node000006" class="edge">
<title>Node2&#45;&gt;Node6</title>
<g id="a_edge5_Node000002_Node000006"><a xlink:title=" ">
<path fill="none" stroke="#63b8ff" d="M192.85,-51.14C215.64,-41.52 245.41,-28.97 265.53,-20.48"/>
<polygon fill="#63b8ff" stroke="#63b8ff" points="191.54,-47.89 183.69,-55.01 194.26,-54.34 191.54,-47.89"/>
</a>
</g>
</g>
</g>
</svg>
</svg>

<style type='text/css'>
<![CDATA[
[data-mouse-over-selected='false'] { opacity: 0.7; }
[data-mouse-over-selected='true']  { opacity: 1.0; }
]]>
</style>
<script type="application/ecmascript"><![CDATA[
document.addEventListener('DOMContentLoaded', (event) => {
  highlightEdges();
  highlightAdjacentNodes();
});
]]></script>
</svg>
