<?xml version="1.0" encoding="UTF-8" standalone="no"?>
<!DOCTYPE svg PUBLIC "-//W3C//DTD SVG 1.1//EN"
 "http://www.w3.org/Graphics/SVG/1.1/DTD/svg11.dtd">
<!-- Generated by graphviz version 13.1.1 (0)
 -->
<!-- Title: pch.hpp Pages: 1 -->
<svg width="2208pt" height="152pt"
 viewBox="0.00 0.00 2208.00 152.00" xmlns="http://www.w3.org/2000/svg" xmlns:xlink="http://www.w3.org/1999/xlink">
<g id="graph0" class="graph" transform="scale(1 1) rotate(0) translate(4 148)">
<title>pch.hpp</title>
<!-- Node1 -->
<g id="Node000001" class="node">
<title>Node1</title>
<g id="a_Node000001"><a xlink:title=" ">
<polygon fill="#999999" stroke="#666666" points="1238,-144 1187.5,-144 1187.5,-124 1238,-124 1238,-144"/>
<text xml:space="preserve" text-anchor="middle" x="1212.75" y="-130.5" font-family="Helvetica,sans-Serif" font-size="10.00">pch.hpp</text>
</a>
</g>
</g>
<!-- Node2 -->
<g id="Node000002" class="node">
<title>Node2</title>
<g id="a_Node000002"><a xlink:href="def_8hpp.html" target="_top" xlink:title=" ">
<polygon fill="white" stroke="#666666" points="694.12,-82 593.38,-82 593.38,-62 694.12,-62 694.12,-82"/>
<text xml:space="preserve" text-anchor="middle" x="643.75" y="-68.5" font-family="Helvetica,sans-Serif" font-size="10.00">mr&#45;importer/def.hpp</text>
</a>
</g>
</g>
<!-- Node1&#45;&gt;Node2 -->
<g id="edge1_Node000001_Node000002" class="edge">
<title>Node1&#45;&gt;Node2</title>
<g id="a_edge1_Node000001_Node000002"><a xlink:title=" ">
<path fill="none" stroke="#63b8ff" d="M1187.15,-132.16C1112.29,-129.38 887.47,-118.89 703.75,-88 698.79,-87.17 693.64,-86.14 688.53,-85.01"/>
<polygon fill="#63b8ff" stroke="#63b8ff" points="689.52,-81.64 678.98,-82.77 687.92,-88.46 689.52,-81.64"/>
</a>
</g>
</g>
<!-- Node8 -->
<g id="Node000008" class="node">
<title>Node8</title>
<g id="a_Node000008"><a xlink:title=" ">
<polygon fill="#e0e0e0" stroke="#999999" points="95.5,-20 0,-20 0,0 95.5,0 95.5,-20"/>
<text xml:space="preserve" text-anchor="middle" x="47.75" y="-6.5" font-family="Helvetica,sans-Serif" font-size="10.00">mr&#45;math/math.hpp</text>
</a>
</g>
</g>
<!-- Node1&#45;&gt;Node8 -->
<g id="edge34_Node000001_Node000008" class="edge">
<title>Node1&#45;&gt;Node8</title>
<g id="a_edge34_Node000001_Node000008"><a xlink:title=" ">
<path fill="none" stroke="#63b8ff" d="M1187.27,-131.81C1101.89,-127.68 818.17,-112.87 584.75,-88 374.16,-65.57 319.68,-52.37 107.17,-20.35"/>
<polygon fill="#63b8ff" stroke="#63b8ff" points="107.85,-16.91 97.44,-18.89 106.81,-23.84 107.85,-16.91"/>
</a>
</g>
</g>
<!-- Node19 -->
<g id="Node000019" class="node">
<title>Node19</title>
<g id="a_Node000019"><a xlink:title=" ">
<polygon fill="#e0e0e0" stroke="#999999" points="755.25,-82 712.25,-82 712.25,-62 755.25,-62 755.25,-82"/>
<text xml:space="preserve" text-anchor="middle" x="733.75" y="-68.5" font-family="Helvetica,sans-Serif" font-size="10.00">cmath</text>
</a>
</g>
</g>
<!-- Node1&#45;&gt;Node19 -->
<g id="edge18_Node000001_Node000019" class="edge">
<title>Node1&#45;&gt;Node19</title>
<g id="a_edge18_Node000001_Node000019"><a xlink:title=" ">
<path fill="none" stroke="#63b8ff" d="M1187.16,-133.52C1117.75,-134.27 920.65,-132.05 764.75,-88 763.39,-87.62 762.02,-87.17 760.65,-86.69"/>
<polygon fill="#63b8ff" stroke="#63b8ff" points="762.35,-83.61 751.78,-82.95 759.63,-90.06 762.35,-83.61"/>
</a>
</g>
</g>
<!-- Node20 -->
<g id="Node000020" class="node">
<title>Node20</title>
<g id="a_Node000020"><a xlink:title=" ">
<polygon fill="#e0e0e0" stroke="#999999" points="831.75,-82 773.75,-82 773.75,-62 831.75,-62 831.75,-82"/>
<text xml:space="preserve" text-anchor="middle" x="802.75" y="-68.5" font-family="Helvetica,sans-Serif" font-size="10.00">execution</text>
</a>
</g>
</g>
<!-- Node1&#45;&gt;Node20 -->
<g id="edge19_Node000001_Node000020" class="edge">
<title>Node1&#45;&gt;Node20</title>
<g id="a_edge19_Node000001_Node000020"><a xlink:title=" ">
<path fill="none" stroke="#63b8ff" d="M1187.08,-132.15C1126.1,-129.64 968.13,-120.28 840.75,-88 838.64,-87.46 836.48,-86.84 834.33,-86.16"/>
<polygon fill="#63b8ff" stroke="#63b8ff" points="835.76,-82.95 825.16,-82.9 833.41,-89.55 835.76,-82.95"/>
</a>
</g>
</g>
<!-- Node21 -->
<g id="Node000021" class="node">
<title>Node21</title>
<g id="a_Node000021"><a xlink:title=" ">
<polygon fill="#e0e0e0" stroke="#999999" points="905.62,-82 849.88,-82 849.88,-62 905.62,-62 905.62,-82"/>
<text xml:space="preserve" text-anchor="middle" x="877.75" y="-68.5" font-family="Helvetica,sans-Serif" font-size="10.00">expected</text>
</a>
</g>
</g>
<!-- Node1&#45;&gt;Node21 -->
<g id="edge20_Node000001_Node000021" class="edge">
<title>Node1&#45;&gt;Node21</title>
<g id="a_edge20_Node000001_Node000021"><a xlink:title=" ">
<path fill="none" stroke="#63b8ff" d="M1187.22,-131.18C1135.17,-127.02 1013.4,-115.04 914.75,-88 912.91,-87.5 911.04,-86.93 909.17,-86.31"/>
<polygon fill="#63b8ff" stroke="#63b8ff" points="910.6,-83.11 900.01,-82.96 908.2,-89.69 910.6,-83.11"/>
</a>
</g>
</g>
<!-- Node22 -->
<g id="Node000022" class="node">
<title>Node22</title>
<g id="a_Node000022"><a xlink:title=" ">
<polygon fill="#e0e0e0" stroke="#999999" points="981.75,-82 923.75,-82 923.75,-62 981.75,-62 981.75,-82"/>
<text xml:space="preserve" text-anchor="middle" x="952.75" y="-68.5" font-family="Helvetica,sans-Serif" font-size="10.00">functional</text>
</a>
</g>
</g>
<!-- Node1&#45;&gt;Node22 -->
<g id="edge21_Node000001_Node000022" class="edge">
<title>Node1&#45;&gt;Node22</title>
<g id="a_edge21_Node000001_Node000022"><a xlink:title=" ">
<path fill="none" stroke="#63b8ff" d="M1187.23,-129.22C1145.73,-122.76 1061.29,-108.3 991.75,-88 989.8,-87.43 987.81,-86.81 985.81,-86.14"/>
<polygon fill="#63b8ff" stroke="#63b8ff" points="987.24,-82.94 976.64,-82.88 984.89,-89.53 987.24,-82.94"/>
</a>
</g>
</g>
<!-- Node23 -->
<g id="Node000023" class="node">
<title>Node23</title>
<g id="a_Node000023"><a xlink:title=" ">
<polygon fill="#e0e0e0" stroke="#999999" points="1037.25,-82 1000.25,-82 1000.25,-62 1037.25,-62 1037.25,-82"/>
<text xml:space="preserve" text-anchor="middle" x="1018.75" y="-68.5" font-family="Helvetica,sans-Serif" font-size="10.00">tuple</text>
</a>
</g>
</g>
<!-- Node1&#45;&gt;Node23 -->
<g id="edge22_Node000001_Node000023" class="edge">
<title>Node1&#45;&gt;Node23</title>
<g id="a_edge22_Node000001_Node000023"><a xlink:title=" ">
<path fill="none" stroke="#63b8ff" d="M1187.23,-128.15C1153.92,-121.36 1094.17,-107.63 1045.75,-88 1045.27,-87.8 1044.78,-87.6 1044.29,-87.39"/>
<polygon fill="#63b8ff" stroke="#63b8ff" points="1046.01,-84.34 1035.49,-83.06 1042.92,-90.62 1046.01,-84.34"/>
</a>
</g>
</g>
<!-- Node24 -->
<g id="Node000024" class="node">
<title>Node24</title>
<g id="a_Node000024"><a xlink:title=" ">
<polygon fill="#e0e0e0" stroke="#999999" points="1094.38,-82 1055.12,-82 1055.12,-62 1094.38,-62 1094.38,-82"/>
<text xml:space="preserve" text-anchor="middle" x="1074.75" y="-68.5" font-family="Helvetica,sans-Serif" font-size="10.00">utility</text>
</a>
</g>
</g>
<!-- Node1&#45;&gt;Node24 -->
<g id="edge23_Node000001_Node000024" class="edge">
<title>Node1&#45;&gt;Node24</title>
<g id="a_edge23_Node000001_Node000024"><a xlink:title=" ">
<path fill="none" stroke="#63b8ff" d="M1188.25,-123.58C1165.98,-114.86 1132.35,-101.27 1103.75,-88 1103.4,-87.84 1103.05,-87.68 1102.7,-87.51"/>
<polygon fill="#63b8ff" stroke="#63b8ff" points="1104.3,-84.39 1093.78,-83.11 1101.2,-90.67 1104.3,-84.39"/>
</a>
</g>
</g>
<!-- Node25 -->
<g id="Node000025" class="node">
<title>Node25</title>
<g id="a_Node000025"><a xlink:title=" ">
<polygon fill="#e0e0e0" stroke="#999999" points="1199,-82 1112.5,-82 1112.5,-62 1199,-62 1199,-82"/>
<text xml:space="preserve" text-anchor="middle" x="1155.75" y="-68.5" font-family="Helvetica,sans-Serif" font-size="10.00">fastgltf/core.hpp</text>
</a>
</g>
</g>
<!-- Node1&#45;&gt;Node25 -->
<g id="edge24_Node000001_Node000025" class="edge">
<title>Node1&#45;&gt;Node25</title>
<g id="a_edge24_Node000001_Node000025"><a xlink:title=" ">
<path fill="none" stroke="#63b8ff" d="M1203.84,-123.62C1195.43,-114.77 1182.6,-101.26 1172.3,-90.43"/>
<polygon fill="#63b8ff" stroke="#63b8ff" points="1174.87,-88.05 1165.45,-83.21 1169.8,-92.87 1174.87,-88.05"/>
</a>
</g>
</g>
<!-- Node26 -->
<g id="Node000026" class="node">
<title>Node26</title>
<g id="a_Node000026"><a xlink:title=" ">
<polygon fill="#e0e0e0" stroke="#999999" points="1322,-88 1217.5,-88 1217.5,-56 1322,-56 1322,-88"/>
<text xml:space="preserve" text-anchor="start" x="1225.5" y="-74.5" font-family="Helvetica,sans-Serif" font-size="10.00">fastgltf/glm_element</text>
<text xml:space="preserve" text-anchor="middle" x="1269.75" y="-62.5" font-family="Helvetica,sans-Serif" font-size="10.00">_traits.hpp</text>
</a>
</g>
</g>
<!-- Node1&#45;&gt;Node26 -->
<g id="edge25_Node000001_Node000026" class="edge">
<title>Node1&#45;&gt;Node26</title>
<g id="a_edge25_Node000001_Node000026"><a xlink:title=" ">
<path fill="none" stroke="#63b8ff" d="M1221.66,-123.62C1228.56,-116.36 1238.44,-105.96 1247.45,-96.48"/>
<polygon fill="#63b8ff" stroke="#63b8ff" points="1249.97,-98.9 1254.32,-89.24 1244.9,-94.08 1249.97,-98.9"/>
</a>
</g>
</g>
<!-- Node27 -->
<g id="Node000027" class="node">
<title>Node27</title>
<g id="a_Node000027"><a xlink:title=" ">
<polygon fill="#e0e0e0" stroke="#999999" points="1429.5,-82 1340,-82 1340,-62 1429.5,-62 1429.5,-82"/>
<text xml:space="preserve" text-anchor="middle" x="1384.75" y="-68.5" font-family="Helvetica,sans-Serif" font-size="10.00">fastgltf/math.hpp</text>
</a>
</g>
</g>
<!-- Node1&#45;&gt;Node27 -->
<g id="edge26_Node000001_Node000027" class="edge">
<title>Node1&#45;&gt;Node27</title>
<g id="a_edge26_Node000001_Node000027"><a xlink:title=" ">
<path fill="none" stroke="#63b8ff" d="M1238.13,-124.15C1266.84,-114.13 1313.9,-97.72 1346.94,-86.19"/>
<polygon fill="#63b8ff" stroke="#63b8ff" points="1347.84,-89.58 1356.13,-82.98 1345.54,-82.97 1347.84,-89.58"/>
</a>
</g>
</g>
<!-- Node28 -->
<g id="Node000028" class="node">
<title>Node28</title>
<g id="a_Node000028"><a xlink:title=" ">
<polygon fill="#e0e0e0" stroke="#999999" points="1536.12,-82 1447.38,-82 1447.38,-62 1536.12,-62 1536.12,-82"/>
<text xml:space="preserve" text-anchor="middle" x="1491.75" y="-68.5" font-family="Helvetica,sans-Serif" font-size="10.00">fastgltf/tools.hpp</text>
</a>
</g>
</g>
<!-- Node1&#45;&gt;Node28 -->
<g id="edge27_Node000001_Node000028" class="edge">
<title>Node1&#45;&gt;Node28</title>
<g id="a_edge27_Node000001_Node000028"><a xlink:title=" ">
<path fill="none" stroke="#63b8ff" d="M1238.31,-128.59C1280.35,-121.19 1366.6,-105.36 1438.75,-88 1442.08,-87.2 1445.52,-86.33 1448.97,-85.42"/>
<polygon fill="#63b8ff" stroke="#63b8ff" points="1449.71,-88.85 1458.45,-82.85 1447.88,-82.09 1449.71,-88.85"/>
</a>
</g>
</g>
<!-- Node29 -->
<g id="Node000029" class="node">
<title>Node29</title>
<g id="a_Node000029"><a xlink:title=" ">
<polygon fill="#e0e0e0" stroke="#999999" points="1645.62,-82 1553.88,-82 1553.88,-62 1645.62,-62 1645.62,-82"/>
<text xml:space="preserve" text-anchor="middle" x="1599.75" y="-68.5" font-family="Helvetica,sans-Serif" font-size="10.00">fastgltf/types.hpp</text>
</a>
</g>
</g>
<!-- Node1&#45;&gt;Node29 -->
<g id="edge28_Node000001_Node000029" class="edge">
<title>Node1&#45;&gt;Node29</title>
<g id="a_edge28_Node000001_Node000029"><a xlink:title=" ">
<path fill="none" stroke="#63b8ff" d="M1238.35,-130.69C1294.31,-125.38 1431.6,-110.99 1544.75,-88 1548.77,-87.18 1552.93,-86.24 1557.08,-85.23"/>
<polygon fill="#63b8ff" stroke="#63b8ff" points="1557.65,-88.69 1566.46,-82.82 1555.91,-81.91 1557.65,-88.69"/>
</a>
</g>
</g>
<!-- Node30 -->
<g id="Node000030" class="node">
<title>Node30</title>
<g id="a_Node000030"><a xlink:title=" ">
<polygon fill="#e0e0e0" stroke="#999999" points="1751.75,-82 1663.75,-82 1663.75,-62 1751.75,-62 1751.75,-82"/>
<text xml:space="preserve" text-anchor="middle" x="1707.75" y="-68.5" font-family="Helvetica,sans-Serif" font-size="10.00">meshoptimizer.h</text>
</a>
</g>
</g>
<!-- Node1&#45;&gt;Node30 -->
<g id="edge29_Node000001_Node000030" class="edge">
<title>Node1&#45;&gt;Node30</title>
<g id="a_edge29_Node000001_Node000030"><a xlink:title=" ">
<path fill="none" stroke="#63b8ff" d="M1238.39,-131.95C1306.65,-128.83 1498.3,-117.87 1654.75,-88 1658.62,-87.26 1662.63,-86.37 1666.61,-85.4"/>
<polygon fill="#63b8ff" stroke="#63b8ff" points="1667.45,-88.79 1676.23,-82.87 1665.67,-82.02 1667.45,-88.79"/>
</a>
</g>
</g>
<!-- Node31 -->
<g id="Node000031" class="node">
<title>Node31</title>
<g id="a_Node000031"><a xlink:title=" ">
<polygon fill="#e0e0e0" stroke="#999999" points="1839.38,-82 1770.12,-82 1770.12,-62 1839.38,-62 1839.38,-82"/>
<text xml:space="preserve" text-anchor="middle" x="1804.75" y="-68.5" font-family="Helvetica,sans-Serif" font-size="10.00">stb_image.h</text>
</a>
</g>
</g>
<!-- Node1&#45;&gt;Node31 -->
<g id="edge30_Node000001_Node000031" class="edge">
<title>Node1&#45;&gt;Node31</title>
<g id="a_edge30_Node000001_Node000031"><a xlink:title=" ">
<path fill="none" stroke="#63b8ff" d="M1238.47,-133.12C1317.41,-133.03 1562.86,-129.2 1760.75,-88 1763.58,-87.41 1766.49,-86.69 1769.39,-85.89"/>
<polygon fill="#63b8ff" stroke="#63b8ff" points="1770.41,-89.24 1778.93,-82.95 1768.35,-82.55 1770.41,-89.24"/>
</a>
</g>
</g>
<!-- Node32 -->
<g id="Node000032" class="node">
<title>Node32</title>
<g id="a_Node000032"><a xlink:title=" ">
<polygon fill="#e0e0e0" stroke="#999999" points="1984.25,-82 1857.25,-82 1857.25,-62 1984.25,-62 1984.25,-82"/>
<text xml:space="preserve" text-anchor="middle" x="1920.75" y="-68.5" font-family="Helvetica,sans-Serif" font-size="10.00">mr&#45;manager/manager.hpp</text>
</a>
</g>
</g>
<!-- Node1&#45;&gt;Node32 -->
<g id="edge31_Node000001_Node000032" class="edge">
<title>Node1&#45;&gt;Node32</title>
<g id="a_edge31_Node000001_Node000032"><a xlink:title=" ">
<path fill="none" stroke="#63b8ff" d="M1238.33,-132.43C1324.65,-130.23 1613.02,-120.74 1848.75,-88 1855.31,-87.09 1862.17,-85.93 1868.94,-84.66"/>
<polygon fill="#63b8ff" stroke="#63b8ff" points="1869.55,-88.11 1878.69,-82.74 1868.2,-81.24 1869.55,-88.11"/>
</a>
</g>
</g>
<!-- Node33 -->
<g id="Node000033" class="node">
<title>Node33</title>
<g id="a_Node000033"><a xlink:title=" ">
<polygon fill="#e0e0e0" stroke="#999999" points="2099.25,-82 2002.25,-82 2002.25,-62 2099.25,-62 2099.25,-82"/>
<text xml:space="preserve" text-anchor="middle" x="2050.75" y="-68.5" font-family="Helvetica,sans-Serif" font-size="10.00">mr&#45;utils/assert.hpp</text>
</a>
</g>
</g>
<!-- Node1&#45;&gt;Node33 -->
<g id="edge32_Node000001_Node000033" class="edge">
<title>Node1&#45;&gt;Node33</title>
<g id="a_edge32_Node000001_Node000033"><a xlink:title=" ">
<path fill="none" stroke="#63b8ff" d="M1238.23,-133.37C1336.45,-134.41 1699.66,-134.69 1993.75,-88 1998.47,-87.25 2003.36,-86.28 2008.21,-85.18"/>
<polygon fill="#63b8ff" stroke="#63b8ff" points="2008.98,-88.6 2017.86,-82.83 2007.32,-81.8 2008.98,-88.6"/>
</a>
</g>
</g>
<!-- Node34 -->
<g id="Node000034" class="node">
<title>Node34</title>
<g id="a_Node000034"><a xlink:title=" ">
<polygon fill="#e0e0e0" stroke="#999999" points="2200.12,-82 2117.38,-82 2117.38,-62 2200.12,-62 2200.12,-82"/>
<text xml:space="preserve" text-anchor="middle" x="2158.75" y="-68.5" font-family="Helvetica,sans-Serif" font-size="10.00">mr&#45;utils/log.hpp</text>
</a>
</g>
</g>
<!-- Node1&#45;&gt;Node34 -->
<g id="edge33_Node000001_Node000034" class="edge">
<title>Node1&#45;&gt;Node34</title>
<g id="a_edge33_Node000001_Node000034"><a xlink:title=" ">
<path fill="none" stroke="#63b8ff" d="M1238.35,-132.55C1366.04,-130.16 1934.74,-118.02 2108.75,-88 2112.62,-87.33 2116.61,-86.46 2120.57,-85.48"/>
<polygon fill="#63b8ff" stroke="#63b8ff" points="2121.35,-88.89 2130.07,-82.86 2119.5,-82.14 2121.35,-88.89"/>
</a>
</g>
</g>
<!-- Node3 -->
<g id="Node000003" class="node">
<title>Node3</title>
<g id="a_Node000003"><a xlink:title=" ">
<polygon fill="#e0e0e0" stroke="#999999" points="174.25,-20 113.25,-20 113.25,0 174.25,0 174.25,-20"/>
<text xml:space="preserve" text-anchor="middle" x="143.75" y="-6.5" font-family="Helvetica,sans-Serif" font-size="10.00">filesystem</text>
</a>
</g>
</g>
<!-- Node2&#45;&gt;Node3 -->
<g id="edge2_Node000002_Node000003" class="edge">
<title>Node2&#45;&gt;Node3</title>
<g id="a_edge2_Node000002_Node000003"><a xlink:title=" ">
<path fill="none" stroke="#63b8ff" d="M593.13,-67.23C510.13,-60.66 339.77,-45.48 185.75,-20.16"/>
<polygon fill="#63b8ff" stroke="#63b8ff" points="186.62,-16.76 176.19,-18.57 185.47,-23.66 186.62,-16.76"/>
</a>
</g>
</g>
<!-- Node4 -->
<g id="Node000004" class="node">
<title>Node4</title>
<g id="a_Node000004"><a xlink:title=" ">
<polygon fill="#e0e0e0" stroke="#999999" points="232.75,-20 192.75,-20 192.75,0 232.75,0 232.75,-20"/>
<text xml:space="preserve" text-anchor="middle" x="212.75" y="-6.5" font-family="Helvetica,sans-Serif" font-size="10.00">string</text>
</a>
</g>
</g>
<!-- Node2&#45;&gt;Node4 -->
<g id="edge3_Node000002_Node000004" class="edge">
<title>Node2&#45;&gt;Node4</title>
<g id="a_edge3_Node000002_Node000004"><a xlink:title=" ">
<path fill="none" stroke="#63b8ff" d="M592.98,-67.24C518.52,-61.15 375.29,-47.18 244.01,-19.89"/>
<polygon fill="#63b8ff" stroke="#63b8ff" points="244.95,-16.51 234.45,-17.87 243.51,-23.36 244.95,-16.51"/>
</a>
</g>
</g>
<!-- Node5 -->
<g id="Node000005" class="node">
<title>Node5</title>
<g id="a_Node000005"><a xlink:title=" ">
<polygon fill="#e0e0e0" stroke="#999999" points="294.25,-20 251.25,-20 251.25,0 294.25,0 294.25,-20"/>
<text xml:space="preserve" text-anchor="middle" x="272.75" y="-6.5" font-family="Helvetica,sans-Serif" font-size="10.00">vector</text>
</a>
</g>
</g>
<!-- Node2&#45;&gt;Node5 -->
<g id="edge4_Node000002_Node000005" class="edge">
<title>Node2&#45;&gt;Node5</title>
<g id="a_edge4_Node000002_Node000005"><a xlink:title=" ">
<path fill="none" stroke="#63b8ff" d="M593.07,-65.71C528.32,-58.46 412.69,-43.81 305.61,-20.39"/>
<polygon fill="#63b8ff" stroke="#63b8ff" points="306.61,-17.03 296.09,-18.28 305.09,-23.86 306.61,-17.03"/>
</a>
</g>
</g>
<!-- Node6 -->
<g id="Node000006" class="node">
<title>Node6</title>
<g id="a_Node000006"><a xlink:title=" ">
<polygon fill="#e0e0e0" stroke="#999999" points="363.38,-20 312.12,-20 312.12,0 363.38,0 363.38,-20"/>
<text xml:space="preserve" text-anchor="middle" x="337.75" y="-6.5" font-family="Helvetica,sans-Serif" font-size="10.00">memory</text>
</a>
</g>
</g>
<!-- Node2&#45;&gt;Node6 -->
<g id="edge5_Node000002_Node000006" class="edge">
<title>Node2&#45;&gt;Node6</title>
<g id="a_edge5_Node000002_Node000006"><a xlink:title=" ">
<path fill="none" stroke="#63b8ff" d="M592.89,-62.61C540.43,-53.71 456.02,-38.66 374.63,-20.54"/>
<polygon fill="#63b8ff" stroke="#63b8ff" points="375.69,-17.19 365.17,-18.41 374.16,-24.02 375.69,-17.19"/>
</a>
</g>
</g>
<!-- Node7 -->
<g id="Node000007" class="node">
<title>Node7</title>
<g id="a_Node000007"><a xlink:title=" ">
<polygon fill="#e0e0e0" stroke="#999999" points="426.38,-20 381.12,-20 381.12,0 426.38,0 426.38,-20"/>
<text xml:space="preserve" text-anchor="middle" x="403.75" y="-6.5" font-family="Helvetica,sans-Serif" font-size="10.00">cstdint</text>
</a>
</g>
</g>
<!-- Node2&#45;&gt;Node7 -->
<g id="edge6_Node000002_Node000007" class="edge">
<title>Node2&#45;&gt;Node7</title>
<g id="a_edge6_Node000002_Node000007"><a xlink:title=" ">
<path fill="none" stroke="#63b8ff" d="M602.77,-61.55C562.84,-52.23 500.17,-37.26 437.6,-20.69"/>
<polygon fill="#63b8ff" stroke="#63b8ff" points="438.77,-17.38 428.2,-18.18 436.97,-24.14 438.77,-17.38"/>
</a>
</g>
</g>
<!-- Node2&#45;&gt;Node8 -->
<g id="edge7_Node000002_Node000008" class="edge">
<title>Node2&#45;&gt;Node8</title>
<g id="a_edge7_Node000002_Node000008"><a xlink:title=" ">
<path fill="none" stroke="#63b8ff" d="M593.1,-67.27C499.38,-60.13 292.31,-43.28 107.24,-20.24"/>
<polygon fill="#63b8ff" stroke="#63b8ff" points="107.78,-16.78 97.42,-19.01 106.91,-23.73 107.78,-16.78"/>
</a>
</g>
</g>
<!-- Node9 -->
<g id="Node000009" class="node">
<title>Node9</title>
<g id="a_Node000009"><a xlink:title=" ">
<polygon fill="#e0e0e0" stroke="#999999" points="557.5,-20 444,-20 444,0 557.5,0 557.5,-20"/>
<text xml:space="preserve" text-anchor="middle" x="500.75" y="-6.5" font-family="Helvetica,sans-Serif" font-size="10.00">glm/detail/qualifier.hpp</text>
</a>
</g>
</g>
<!-- Node2&#45;&gt;Node9 -->
<g id="edge8_Node000002_Node000009" class="edge">
<title>Node2&#45;&gt;Node9</title>
<g id="a_edge8_Node000002_Node000009"><a xlink:title=" ">
<path fill="none" stroke="#63b8ff" d="M621.41,-61.62C597.79,-51.72 560.32,-35.99 533.4,-24.7"/>
<polygon fill="#63b8ff" stroke="#63b8ff" points="534.91,-21.54 524.33,-20.89 532.2,-27.99 534.91,-21.54"/>
</a>
</g>
</g>
<!-- Node10 -->
<g id="Node000010" class="node">
<title>Node10</title>
<g id="a_Node000010"><a xlink:title=" ">
<polygon fill="#e0e0e0" stroke="#999999" points="712.12,-20 575.38,-20 575.38,0 712.12,0 712.12,-20"/>
<text xml:space="preserve" text-anchor="middle" x="643.75" y="-6.5" font-family="Helvetica,sans-Serif" font-size="10.00">glm/ext/matrix_float4x4.hpp</text>
</a>
</g>
</g>
<!-- Node2&#45;&gt;Node10 -->
<g id="edge9_Node000002_Node000010" class="edge">
<title>Node2&#45;&gt;Node10</title>
<g id="a_edge9_Node000002_Node000010"><a xlink:title=" ">
<path fill="none" stroke="#63b8ff" d="M643.75,-61.62C643.75,-53.56 643.75,-41.65 643.75,-31.41"/>
<polygon fill="#63b8ff" stroke="#63b8ff" points="647.25,-31.63 643.75,-21.63 640.25,-31.63 647.25,-31.63"/>
</a>
</g>
</g>
<!-- Node11 -->
<g id="Node000011" class="node">
<title>Node11</title>
<g id="a_Node000011"><a xlink:title=" ">
<polygon fill="#e0e0e0" stroke="#999999" points="856.88,-20 730.62,-20 730.62,0 856.88,0 856.88,-20"/>
<text xml:space="preserve" text-anchor="middle" x="793.75" y="-6.5" font-family="Helvetica,sans-Serif" font-size="10.00">glm/ext/vector_float2.hpp</text>
</a>
</g>
</g>
<!-- Node2&#45;&gt;Node11 -->
<g id="edge10_Node000002_Node000011" class="edge">
<title>Node2&#45;&gt;Node11</title>
<g id="a_edge10_Node000002_Node000011"><a xlink:title=" ">
<path fill="none" stroke="#63b8ff" d="M667.19,-61.62C692.07,-51.67 731.61,-35.85 759.88,-24.55"/>
<polygon fill="#63b8ff" stroke="#63b8ff" points="761.09,-27.83 769.07,-20.87 758.49,-21.34 761.09,-27.83"/>
</a>
</g>
</g>
<!-- Node12 -->
<g id="Node000012" class="node">
<title>Node12</title>
<g id="a_Node000012"><a xlink:title=" ">
<polygon fill="#e0e0e0" stroke="#999999" points="1000.88,-20 874.62,-20 874.62,0 1000.88,0 1000.88,-20"/>
<text xml:space="preserve" text-anchor="middle" x="937.75" y="-6.5" font-family="Helvetica,sans-Serif" font-size="10.00">glm/ext/vector_float3.hpp</text>
</a>
</g>
</g>
<!-- Node2&#45;&gt;Node12 -->
<g id="edge11_Node000002_Node000012" class="edge">
<title>Node2&#45;&gt;Node12</title>
<g id="a_edge11_Node000002_Node000012"><a xlink:title=" ">
<path fill="none" stroke="#63b8ff" d="M680.16,-61.56C687.93,-59.64 696.1,-57.69 703.75,-56 760.66,-43.42 825.8,-31.06 872.88,-22.49"/>
<polygon fill="#63b8ff" stroke="#63b8ff" points="873.43,-25.94 882.65,-20.71 872.19,-19.05 873.43,-25.94"/>
</a>
</g>
</g>
<!-- Node13 -->
<g id="Node000013" class="node">
<title>Node13</title>
<g id="a_Node000013"><a xlink:title=" ">
<polygon fill="#e0e0e0" stroke="#999999" points="1144.88,-20 1018.62,-20 1018.62,0 1144.88,0 1144.88,-20"/>
<text xml:space="preserve" text-anchor="middle" x="1081.75" y="-6.5" font-family="Helvetica,sans-Serif" font-size="10.00">glm/ext/vector_float4.hpp</text>
</a>
</g>
</g>
<!-- Node2&#45;&gt;Node13 -->
<g id="edge12_Node000002_Node000013" class="edge">
<title>Node2&#45;&gt;Node13</title>
<g id="a_edge12_Node000002_Node000013"><a xlink:title=" ">
<path fill="none" stroke="#63b8ff" d="M678.49,-61.52C686.72,-59.49 695.51,-57.51 703.75,-56 834.9,-31.99 871.88,-36.24 1006.96,-20.31"/>
<polygon fill="#63b8ff" stroke="#63b8ff" points="1007.13,-23.82 1016.65,-19.16 1006.3,-16.87 1007.13,-23.82"/>
</a>
</g>
</g>
<!-- Node14 -->
<g id="Node000014" class="node">
<title>Node14</title>
<g id="a_Node000014"><a xlink:title=" ">
<polygon fill="#e0e0e0" stroke="#999999" points="1232.38,-20 1163.12,-20 1163.12,0 1232.38,0 1232.38,-20"/>
<text xml:space="preserve" text-anchor="middle" x="1197.75" y="-6.5" font-family="Helvetica,sans-Serif" font-size="10.00">glm/glm.hpp</text>
</a>
</g>
</g>
<!-- Node2&#45;&gt;Node14 -->
<g id="edge13_Node000002_Node000014" class="edge">
<title>Node2&#45;&gt;Node14</title>
<g id="a_edge13_Node000002_Node000014"><a xlink:title=" ">
<path fill="none" stroke="#63b8ff" d="M677.5,-61.53C686.01,-59.42 695.17,-57.41 703.75,-56 898.08,-24.16 953.07,-47.26 1151.35,-20.15"/>
<polygon fill="#63b8ff" stroke="#63b8ff" points="1151.83,-23.62 1161.25,-18.77 1150.87,-16.69 1151.83,-23.62"/>
</a>
</g>
</g>
<!-- Node15 -->
<g id="Node000015" class="node">
<title>Node15</title>
<g id="a_Node000015"><a xlink:title=" ">
<polygon fill="#e0e0e0" stroke="#999999" points="1355.38,-20 1250.12,-20 1250.12,0 1355.38,0 1355.38,-20"/>
<text xml:space="preserve" text-anchor="middle" x="1302.75" y="-6.5" font-family="Helvetica,sans-Serif" font-size="10.00">glm/gtc/type_ptr.hpp</text>
</a>
</g>
</g>
<!-- Node2&#45;&gt;Node15 -->
<g id="edge14_Node000002_Node000015" class="edge">
<title>Node2&#45;&gt;Node15</title>
<g id="a_edge14_Node000002_Node000015"><a xlink:title=" ">
<path fill="none" stroke="#63b8ff" d="M677.17,-61.53C685.77,-59.4 695.05,-57.37 703.75,-56 936.79,-19.37 1001.46,-44.69 1238.46,-20.26"/>
<polygon fill="#63b8ff" stroke="#63b8ff" points="1238.8,-23.75 1248.38,-19.22 1238.07,-16.79 1238.8,-23.75"/>
</a>
</g>
</g>
<!-- Node16 -->
<g id="Node000016" class="node">
<title>Node16</title>
<g id="a_Node000016"><a xlink:title=" ">
<polygon fill="#e0e0e0" stroke="#999999" points="1472,-20 1373.5,-20 1373.5,0 1472,0 1472,-20"/>
<text xml:space="preserve" text-anchor="middle" x="1422.75" y="-6.5" font-family="Helvetica,sans-Serif" font-size="10.00">slang&#45;com&#45;helper.h</text>
</a>
</g>
</g>
<!-- Node2&#45;&gt;Node16 -->
<g id="edge15_Node000002_Node000016" class="edge">
<title>Node2&#45;&gt;Node16</title>
<g id="a_edge15_Node000002_Node000016"><a xlink:title=" ">
<path fill="none" stroke="#63b8ff" d="M676.85,-61.53C685.53,-59.37 694.94,-57.33 703.75,-56 990.98,-12.68 1070.13,-49.63 1361.76,-20.2"/>
<polygon fill="#63b8ff" stroke="#63b8ff" points="1362.02,-23.69 1371.61,-19.19 1361.31,-16.73 1362.02,-23.69"/>
</a>
</g>
</g>
<!-- Node17 -->
<g id="Node000017" class="node">
<title>Node17</title>
<g id="a_Node000017"><a xlink:title=" ">
<polygon fill="#e0e0e0" stroke="#999999" points="1573.5,-20 1490,-20 1490,0 1573.5,0 1573.5,-20"/>
<text xml:space="preserve" text-anchor="middle" x="1531.75" y="-6.5" font-family="Helvetica,sans-Serif" font-size="10.00">slang&#45;com&#45;ptr.h</text>
</a>
</g>
</g>
<!-- Node2&#45;&gt;Node17 -->
<g id="edge16_Node000002_Node000017" class="edge">
<title>Node2&#45;&gt;Node17</title>
<g id="a_edge16_Node000002_Node000017"><a xlink:title=" ">
<path fill="none" stroke="#63b8ff" d="M676.52,-61.56C685.3,-59.37 694.83,-57.31 703.75,-56 1042.12,-6.37 1135.16,-57.01 1478.24,-20.12"/>
<polygon fill="#63b8ff" stroke="#63b8ff" points="1478.45,-23.62 1488,-19.05 1477.68,-16.66 1478.45,-23.62"/>
</a>
</g>
</g>
<!-- Node18 -->
<g id="Node000018" class="node">
<title>Node18</title>
<g id="a_Node000018"><a xlink:title=" ">
<polygon fill="#e0e0e0" stroke="#999999" points="1639.5,-20 1592,-20 1592,0 1639.5,0 1639.5,-20"/>
<text xml:space="preserve" text-anchor="middle" x="1615.75" y="-6.5" font-family="Helvetica,sans-Serif" font-size="10.00">slang.h</text>
</a>
</g>
</g>
<!-- Node2&#45;&gt;Node18 -->
<g id="edge17_Node000002_Node000018" class="edge">
<title>Node2&#45;&gt;Node18</title>
<g id="a_edge17_Node000002_Node000018"><a xlink:title=" ">
<path fill="none" stroke="#63b8ff" d="M676.52,-61.53C685.29,-59.34 694.82,-57.28 703.75,-56 1087.07,-0.83 1194.32,-78.32 1580.52,-19.94"/>
<polygon fill="#63b8ff" stroke="#63b8ff" points="1580.89,-23.43 1590.24,-18.45 1579.82,-16.51 1580.89,-23.43"/>
</a>
</g>
</g>
</g>
</svg>
